<svg xmlns="http://www.w3.org/2000/svg" xmlns:xlink="http://www.w3.org/1999/xlink" width="500" zoomAndPan="magnify" viewBox="0 0 375 374.999991" height="500" preserveAspectRatio="xMidYMid meet" version="1.0"><defs><clipPath id="9db6efea9d"><path d="M 139 283 L 211 283 L 211 314.304688 L 139 314.304688 Z M 139 283 " clip-rule="nonzero"/></clipPath><clipPath id="1f3016ecde"><path d="M 49.035156 146 L 120 146 L 120 218 L 49.035156 218 Z M 49.035156 146 " clip-rule="nonzero"/></clipPath></defs><rect x="-37.5" width="450" fill="#ffffff" y="-37.499999" height="449.999989" fill-opacity="1"/><rect x="-37.5" width="450" fill="#f2fce4" y="-37.499999" height="449.999989" fill-opacity="1"/><path fill="#006537" d="M 172.585938 125.746094 C 169.921875 125.796875 169.921875 121.554688 172.585938 121.605469 L 209.363281 121.605469 C 212.027344 121.554688 212.027344 125.796875 209.363281 125.746094 Z M 275.671875 209.609375 C 275.574219 206.945312 279.863281 206.894531 279.816406 209.609375 L 279.816406 269.753906 C 279.816406 274.636719 277.792969 279.074219 274.589844 282.277344 C 271.382812 285.484375 266.949219 287.503906 262.066406 287.503906 L 87.785156 287.503906 C 82.855469 287.503906 78.371094 285.484375 75.117188 282.179688 C 71.960938 278.976562 70.039062 274.585938 70.039062 269.753906 L 70.039062 215.082031 C 70.039062 213.945312 70.972656 213.007812 72.109375 213.007812 C 73.242188 213.007812 74.179688 213.945312 74.179688 215.082031 L 74.179688 269.707031 C 74.179688 273.453125 75.707031 276.855469 78.171875 279.320312 C 80.636719 281.785156 84.039062 283.3125 87.785156 283.3125 L 262.066406 283.3125 C 269.558594 283.3125 275.671875 277.199219 275.671875 269.707031 Z M 74.128906 151.53125 C 74.179688 154.191406 69.9375 154.191406 69.988281 151.53125 L 69.988281 139.351562 C 69.988281 129.59375 77.976562 121.605469 87.738281 121.605469 L 113.914062 121.605469 C 116.578125 121.554688 116.628906 125.746094 113.914062 125.746094 L 87.785156 125.746094 C 84.039062 125.746094 80.636719 127.273438 78.171875 129.738281 C 72.601562 134.226562 74.425781 145.320312 74.128906 151.53125 Z M 74.128906 151.53125 " fill-opacity="1" fill-rule="evenodd"/><path fill="#006537" d="M 279.816406 269.609375 C 279.863281 279.371094 271.878906 287.453125 262.066406 287.453125 L 87.738281 287.453125 C 67.425781 286.8125 69.445312 265.417969 69.988281 250.625 C 69.988281 249.492188 70.925781 248.554688 72.058594 248.554688 L 277.746094 248.554688 C 278.878906 248.554688 279.816406 249.492188 279.816406 250.625 Z M 275.671875 269.902344 L 275.671875 252.648438 L 74.128906 252.648438 L 74.128906 269.953125 C 74.277344 277.296875 80.339844 283.265625 87.738281 283.265625 L 262.066406 283.265625 C 269.511719 283.3125 275.625 277.296875 275.671875 269.902344 Z M 275.671875 269.902344 " fill-opacity="1" fill-rule="evenodd"/><g clip-path="url(#9db6efea9d)"><path fill="#006537" d="M 199.453125 287.453125 L 150.398438 287.453125 L 144.136719 309.835938 L 205.664062 309.835938 Z M 148.820312 283.3125 L 200.980469 283.3125 C 201.871094 283.3125 202.707031 283.90625 202.953125 284.84375 L 210.300781 311.167969 C 210.792969 312.449219 209.757812 313.980469 208.378906 313.980469 C 207.738281 313.878906 141.425781 314.175781 140.882812 313.878906 C 139.800781 313.585938 139.160156 312.449219 139.453125 311.367188 L 146.800781 285.039062 C 146.996094 284.054688 147.835938 283.3125 148.820312 283.3125 Z M 148.820312 283.3125 " fill-opacity="1" fill-rule="evenodd"/></g><path fill="#006537" d="M 119.386719 313.980469 C 116.726562 314.027344 116.675781 309.789062 119.386719 309.835938 L 230.265625 309.835938 C 232.929688 309.789062 232.980469 314.027344 230.265625 313.980469 Z M 119.386719 313.980469 " fill-opacity="1" fill-rule="evenodd"/><path fill="#006537" d="M 173.324219 261.964844 C 165.4375 264.085938 168.640625 276.164062 176.578125 274.09375 C 184.464844 271.925781 181.210938 259.847656 173.324219 261.964844 Z M 165.929688 262.804688 C 172.929688 251.121094 190.53125 261.277344 183.925781 273.207031 C 176.921875 284.890625 159.273438 274.734375 165.929688 262.804688 Z M 165.929688 262.804688 " fill-opacity="1" fill-rule="evenodd"/><path fill="#006537" d="M 248.261719 223.757812 C 320.539062 203.296875 307.816406 98.582031 233.125 95.574219 C 229.824219 95.375 214.886719 94.585938 209.5625 109.378906 C 203.445312 125.15625 234.113281 143.988281 222.230469 158.730469 C 211.1875 171.941406 192.796875 160.503906 179.242188 161.933594 C 172.78125 163.660156 167.40625 171.546875 168.542969 177.757812 C 177.910156 212.417969 213.554688 232.976562 248.261719 223.757812 Z M 249.347656 227.75 C 230.859375 232.679688 212.074219 229.671875 196.742188 220.699219 C 181.410156 211.828125 169.527344 197.132812 164.546875 178.695312 C 163.5625 174.210938 165.089844 169.722656 168 165.335938 C 171.15625 160.75 176.628906 157.152344 182.59375 157.398438 C 193.6875 158.039062 210.742188 165.878906 219.074219 156.015625 C 223.511719 150.644531 218.828125 143.25 213.75 135.359375 C 208.230469 126.683594 202.3125 117.414062 205.714844 107.898438 C 212.074219 90.199219 229.476562 91.1875 233.375 91.382812 C 312.5 94.339844 325.960938 206.5 249.347656 227.75 Z M 249.347656 227.75 " fill-opacity="1" fill-rule="evenodd"/><path fill="#006537" d="M 247.621094 134.964844 C 262.460938 131.070312 256.398438 108.441406 241.558594 112.484375 C 227.0625 116.773438 232.878906 138.515625 247.621094 134.964844 Z M 248.707031 138.910156 C 228.640625 143.789062 220.753906 114.160156 240.621094 108.441406 C 260.785156 103.460938 268.671875 133.289062 248.707031 138.910156 Z M 248.707031 138.910156 " fill-opacity="1" fill-rule="evenodd"/><path fill="#006537" d="M 269.214844 169.773438 C 284.054688 165.878906 278.089844 143.296875 263.25 147.191406 C 248.605469 151.433594 254.375 173.371094 269.214844 169.773438 Z M 270.300781 173.765625 C 250.183594 178.695312 242.296875 148.917969 262.214844 143.25 C 282.429688 138.21875 290.367188 168.144531 270.300781 173.765625 Z M 270.300781 173.765625 " fill-opacity="1" fill-rule="evenodd"/><path fill="#006537" d="M 247.226562 206.5 C 262.363281 202.3125 256.398438 179.730469 241.164062 183.527344 C 226.222656 187.816406 232.089844 210.199219 247.226562 206.5 Z M 248.261719 210.496094 C 227.753906 215.277344 219.914062 185.5 240.078125 179.535156 C 260.6875 174.605469 268.625 204.628906 248.261719 210.496094 Z M 248.261719 210.496094 " fill-opacity="1" fill-rule="evenodd"/><path fill="#006537" d="M 207.144531 205.023438 C 189.199219 209.507812 182.101562 182.9375 199.847656 177.808594 C 217.84375 173.320312 224.941406 199.894531 207.144531 205.023438 Z M 198.566406 200.042969 C 210.003906 206.402344 219.765625 189.542969 208.523438 182.789062 C 197.039062 176.429688 187.324219 193.339844 198.566406 200.042969 Z M 198.566406 200.042969 " fill-opacity="1" fill-rule="evenodd"/><path fill="#006537" d="M 150.792969 193.09375 C 151.386719 194.472656 153.308594 200.585938 154.390625 201.523438 C 157.105469 203.890625 164.007812 204.234375 166.027344 207.585938 C 168.542969 210.988281 166.914062 216.363281 162.871094 217.742188 C 160.554688 218.875 154.144531 219.960938 153.40625 222.917969 L 150.84375 229.773438 C 148.921875 235.539062 140.144531 235.539062 138.222656 229.773438 C 137.085938 227.453125 136.003906 221.09375 133.042969 220.304688 L 126.242188 217.742188 C 120.472656 215.820312 120.472656 207.042969 126.242188 205.121094 C 127.621094 204.53125 133.734375 202.605469 134.671875 201.523438 C 135.707031 200.636719 137.679688 194.375 138.269531 193.09375 C 140.09375 187.371094 148.871094 187.324219 150.792969 193.09375 Z M 149.511719 201.375 C 148.96875 200.488281 147.097656 193.78125 146.058594 193.339844 C 144.730469 192.351562 142.558594 192.894531 142.019531 194.523438 C 141.03125 196.789062 139.453125 202.65625 137.628906 204.285156 C 135.460938 207.042969 128.753906 207.539062 126.339844 209.902344 C 123.480469 215.226562 135.410156 215.128906 137.480469 218.382812 C 140.046875 220.554688 140.6875 227.109375 142.855469 229.476562 C 144.1875 230.460938 146.355469 229.921875 146.898438 228.292969 C 148.527344 224.398438 149.757812 217.742188 154.492188 216.410156 C 155.378906 215.871094 162.082031 213.996094 162.527344 212.960938 C 163.511719 211.628906 162.972656 209.460938 161.34375 208.917969 C 157.5 207.339844 150.792969 206.109375 149.511719 201.375 Z M 149.511719 201.375 " fill-opacity="1" fill-rule="evenodd"/><path fill="#006537" d="M 109.085938 134.175781 C 107.605469 136.394531 104.105469 134.027344 105.683594 131.808594 C 114.605469 118.992188 125.15625 104.398438 134.867188 92.269531 C 148.328125 76.59375 156.414062 63.675781 175.050781 62.195312 C 188.460938 61.0625 200.980469 73.535156 199.847656 86.996094 C 197.976562 106.816406 183.925781 114.800781 167.949219 130.675781 C 157.398438 140.140625 145.273438 150.199219 134.128906 158.679688 C 132.058594 160.304688 129.496094 157.003906 131.613281 155.425781 C 149.757812 141.523438 175.34375 119.929688 188.707031 104.25 C 201.574219 90.496094 195.902344 65.449219 175.199219 66.289062 C 157.941406 67.867188 150.84375 80.140625 138.074219 94.835938 C 128.507812 106.863281 118.007812 121.359375 109.085938 134.175781 Z M 109.085938 134.175781 " fill-opacity="1" fill-rule="evenodd"/><g clip-path="url(#1f3016ecde)"><path fill="#006537" d="M 64.515625 160.058594 C 59.339844 165.238281 59.042969 171.746094 58.699219 178.894531 C 58.402344 185.550781 58.058594 192.796875 54.164062 200.488281 C 52.832031 203.050781 52.78125 205.664062 54.015625 208.226562 C 55.199219 210.542969 57.171875 211.925781 59.734375 212.320312 C 81.773438 216.65625 111.054688 205.8125 115.839844 182.886719 C 119.535156 171.398438 98.089844 148.226562 85.023438 149.855469 C 77.875 149.902344 70.925781 153.699219 64.515625 160.058594 Z M 54.605469 178.746094 C 52.832031 150.398438 88.230469 133.980469 108.097656 156.855469 C 134.03125 179.929688 113.027344 208.71875 86.160156 215.277344 C 74.03125 217.300781 49.875 222.082031 49.035156 204.285156 C 51.253906 194.867188 55.148438 188.507812 54.605469 178.746094 Z M 54.605469 178.746094 " fill-opacity="1" fill-rule="evenodd"/></g><path fill="#006537" d="M 86.457031 147.242188 C 90.300781 137.035156 99.816406 128.160156 111.402344 131.5625 C 128.609375 135.953125 145.765625 162.574219 126.734375 175.292969 C 124.21875 176.527344 118.304688 182.097656 116.085938 178.648438 C 114.0625 166.027344 100.949219 152.417969 88.082031 150.101562 C 86.703125 149.902344 85.914062 148.472656 86.457031 147.242188 Z M 94.144531 141.820312 C 93.0625 143.25 92.125 144.875 91.285156 146.550781 C 103.808594 150.003906 116.035156 162.625 119.488281 174.851562 C 149.855469 162.773438 111.402344 118.695312 94.144531 141.820312 Z M 94.144531 141.820312 " fill-opacity="1" fill-rule="evenodd"/><path fill="#006537" d="M 95.625 66.535156 C 96.214844 67.914062 98.140625 74.027344 99.175781 74.964844 C 101.886719 77.332031 108.789062 77.675781 110.808594 81.03125 C 113.324219 84.433594 111.699219 89.804688 107.65625 91.1875 C 105.335938 92.320312 98.929688 93.40625 98.1875 96.363281 L 95.625 103.214844 C 93.703125 108.984375 84.925781 108.984375 83.003906 103.214844 C 81.871094 100.898438 80.785156 94.488281 77.828125 93.75 L 71.023438 91.1875 C 65.253906 89.261719 65.253906 80.488281 71.023438 78.566406 C 72.402344 77.972656 78.519531 76.050781 79.453125 74.964844 C 80.539062 74.078125 82.460938 67.816406 83.054688 66.535156 C 84.925781 60.816406 93.75 60.816406 95.625 66.535156 Z M 94.34375 74.816406 C 93.800781 73.929688 91.925781 67.226562 90.890625 66.78125 C 89.609375 65.796875 87.390625 66.339844 86.898438 67.964844 C 85.914062 70.234375 84.335938 76.101562 82.511719 77.726562 C 80.339844 80.488281 73.636719 80.980469 71.222656 83.347656 C 68.363281 88.671875 80.292969 88.574219 82.363281 91.828125 C 84.925781 93.996094 85.566406 100.554688 87.738281 102.917969 C 89.066406 103.90625 91.238281 103.363281 91.78125 101.738281 C 93.40625 97.839844 94.640625 91.1875 99.371094 89.855469 C 100.257812 89.3125 106.964844 87.4375 107.40625 86.402344 C 108.394531 85.074219 107.851562 82.902344 106.226562 82.359375 C 102.332031 80.832031 95.625 79.550781 94.34375 74.816406 Z M 94.34375 74.816406 " fill-opacity="1" fill-rule="evenodd"/></svg>