<svg xmlns="http://www.w3.org/2000/svg" xmlns:xlink="http://www.w3.org/1999/xlink" width="500" zoomAndPan="magnify" viewBox="0 0 375 374.999991" height="500" preserveAspectRatio="xMidYMid meet" version="1.0"><defs><g/><clipPath id="2e808d006a"><path d="M 55 88 L 321.429688 88 L 321.429688 299 L 55 299 Z M 55 88 " clip-rule="nonzero"/></clipPath></defs><rect x="-37.5" width="450" fill="#ffffff" y="-37.499999" height="449.999989" fill-opacity="1"/><rect x="-37.5" width="450" fill="#fffceb" y="-37.499999" height="449.999989" fill-opacity="1"/><g clip-path="url(#2e808d006a)"><path fill="#006537" d="M 233.070312 192.902344 C 210.878906 209.625 203.414062 232.457031 202.570312 247.554688 C 202.363281 251.285156 202.605469 254.582031 203.390625 257.664062 C 204.140625 260.621094 207.96875 261.441406 209.789062 258.992188 C 220.113281 245.121094 251.875 218.898438 267.109375 211.628906 C 259.820312 226.871094 230.332031 256.613281 218.597656 266.371094 C 207.480469 274.179688 193.132812 280.804688 180.238281 283.59375 C 130.996094 294.25 82.011719 262.914062 71.03125 213.75 C 63.527344 180.152344 75.527344 146.679688 99.480469 125.179688 L 99.28125 124.917969 C 110.789062 114.554688 125.058594 106.960938 141.257812 103.453125 C 185.988281 93.773438 230.503906 118.742188 246.515625 160.25 C 247.453125 162.679688 249.742188 164.320312 252.34375 164.429688 C 257.054688 164.632812 260.433594 159.933594 258.734375 155.535156 C 240.378906 107.957031 189.226562 79.398438 137.964844 90.761719 C 87.585938 101.929688 53.683594 147.742188 55.714844 197.578125 C 55.726562 197.878906 55.769531 198.171875 55.824219 198.457031 C 56.089844 204.320312 56.851562 210.234375 58.148438 216.15625 C 70.53125 272.757812 126.96875 308.828125 183.539062 296.285156 C 197.882812 293.105469 210.886719 287.117188 222.109375 279.027344 C 223.007812 279.453125 223.925781 279.851562 224.871094 280.21875 C 235.492188 284.332031 250.1875 283.320312 265.070312 275.535156 C 309.855469 252.117188 321.09375 173.234375 321.09375 173.234375 C 321.320312 171.339844 259.300781 173.136719 233.070312 192.902344 Z M 233.070312 192.902344 " fill-opacity="1" fill-rule="nonzero"/></g><path fill="#006537" d="M 144.117188 165.917969 C 143.394531 165.917969 142.726562 165.703125 142.160156 165.347656 L 142.160156 166.484375 C 142.160156 167.859375 141.390625 169.109375 140.179688 169.753906 C 130.777344 174.730469 124.332031 184.621094 124.332031 195.949219 L 124.332031 242.515625 C 124.332031 246.589844 127.664062 249.921875 131.734375 249.921875 L 189.089844 249.921875 C 193.160156 249.921875 196.492188 246.589844 196.492188 242.515625 L 196.492188 195.949219 C 196.492188 184.621094 190.046875 174.730469 180.644531 169.753906 C 179.433594 169.109375 178.664062 167.859375 178.664062 166.484375 L 178.664062 165.347656 C 178.097656 165.703125 177.429688 165.917969 176.707031 165.917969 Z M 144.117188 165.917969 " fill-opacity="1" fill-rule="nonzero"/><path fill="#006537" d="M 161.847656 134.835938 L 171.117188 134.835938 C 172.378906 134.835938 172.84375 133.148438 171.742188 132.53125 C 168.878906 130.933594 164.746094 129.929688 160.152344 129.929688 C 155.554688 129.929688 151.421875 130.933594 148.558594 132.53125 C 147.457031 133.148438 147.917969 134.835938 149.183594 134.835938 L 158.453125 134.835938 L 158.453125 150.347656 L 161.847656 150.347656 Z M 161.847656 134.835938 " fill-opacity="1" fill-rule="nonzero"/><path fill="#006537" d="M 140.414062 154.875 L 119.390625 154.875 C 113.09375 154.875 107.625 159.207031 106.179688 165.332031 L 97.617188 201.621094 C 96.949219 204.464844 99.105469 207.1875 102.027344 207.1875 C 104.128906 207.1875 105.953125 205.746094 106.4375 203.699219 L 115.394531 165.734375 C 116.050781 162.945312 118.535156 160.980469 121.398438 160.980469 L 140.414062 160.980469 Z M 140.414062 154.875 " fill-opacity="1" fill-rule="nonzero"/><path fill="#006537" d="M 204.207031 154.300781 L 191.375 152.4375 C 190.636719 152.328125 189.972656 152.902344 189.972656 153.648438 C 189.972656 154.328125 189.425781 154.875 188.746094 154.875 L 180.730469 154.875 C 180.621094 154.875 180.515625 154.898438 180.410156 154.90625 L 180.410156 161.257812 C 180.515625 161.269531 180.621094 161.289062 180.730469 161.289062 L 188.746094 161.289062 C 189.425781 161.289062 189.972656 161.839844 189.972656 162.515625 C 189.972656 163.261719 190.636719 163.835938 191.375 163.730469 L 204.207031 161.863281 C 205.785156 161.632812 206.953125 160.28125 206.953125 158.6875 L 206.953125 157.476562 C 206.953125 155.882812 205.785156 154.535156 204.207031 154.304688 Z M 204.207031 154.300781 " fill-opacity="1" fill-rule="nonzero"/><path fill="#006537" d="M 176.707031 151.714844 L 144.117188 151.714844 C 142.828125 151.714844 141.78125 152.761719 141.78125 154.050781 L 141.78125 162.21875 C 141.78125 163.019531 142.195312 163.757812 142.886719 164.191406 C 143.269531 164.429688 143.683594 164.554688 144.117188 164.554688 L 176.707031 164.554688 C 177.140625 164.554688 177.554688 164.429688 177.941406 164.191406 C 178.632812 163.757812 179.042969 163.019531 179.042969 162.21875 L 179.042969 154.050781 C 179.042969 152.761719 177.996094 151.714844 176.707031 151.714844 Z M 176.707031 151.714844 " fill-opacity="1" fill-rule="nonzero"/><path fill="#ffffff" d="M 178.449219 165.472656 C 178.300781 165.554688 178.144531 165.625 177.988281 165.683594 C 178.144531 165.625 178.300781 165.554688 178.449219 165.472656 Z M 178.449219 165.472656 " fill-opacity="1" fill-rule="nonzero"/><path fill="#ffffff" d="M 180.21875 163.398438 C 180.167969 163.546875 180.109375 163.6875 180.039062 163.828125 C 180.109375 163.6875 180.167969 163.546875 180.21875 163.398438 Z M 180.21875 163.398438 " fill-opacity="1" fill-rule="nonzero"/><path fill="#ffffff" d="M 180.378906 162.703125 C 180.359375 162.863281 180.328125 163.019531 180.285156 163.171875 C 180.328125 163.019531 180.359375 162.863281 180.378906 162.703125 Z M 180.378906 162.703125 " fill-opacity="1" fill-rule="nonzero"/><path fill="#ffffff" d="M 180.410156 162.214844 C 180.410156 162.382812 180.398438 162.542969 180.378906 162.703125 C 180.398438 162.542969 180.410156 162.382812 180.410156 162.214844 Z M 180.410156 162.214844 " fill-opacity="1" fill-rule="nonzero"/><path fill="#ffffff" d="M 141.828125 165.113281 C 141.933594 165.195312 142.042969 165.277344 142.160156 165.347656 C 142.65625 165.660156 143.230469 165.863281 143.847656 165.910156 C 143.230469 165.863281 142.65625 165.660156 142.160156 165.347656 C 142.042969 165.273438 141.933594 165.195312 141.828125 165.113281 Z M 141.828125 165.113281 " fill-opacity="1" fill-rule="nonzero"/><g fill="#000000" fill-opacity="1"><g transform="translate(0.0000045, 1.615534)"><g><path d="M 0.0625 -1.09375 L 0.0625 -1.25 L 0.390625 -1.25 L 0.390625 0 L 0.234375 0 L 0.234375 -1.09375 Z M 0.0625 -1.09375 "/></g></g></g></svg>