<svg xmlns="http://www.w3.org/2000/svg" xmlns:xlink="http://www.w3.org/1999/xlink" width="500" zoomAndPan="magnify" viewBox="0 0 375 374.999991" height="500" preserveAspectRatio="xMidYMid meet" version="1.0"><defs><clipPath id="eb5ce4a854"><path d="M 228 56.175781 L 320 56.175781 L 320 151 L 228 151 Z M 228 56.175781 " clip-rule="nonzero"/></clipPath><clipPath id="9b8e2a939f"><path d="M 150 301 L 227 301 L 227 310.425781 L 150 310.425781 Z M 150 301 " clip-rule="nonzero"/></clipPath><clipPath id="5a44cb383a"><path d="M 257 162 L 323.410156 162 L 323.410156 174 L 257 174 Z M 257 162 " clip-rule="nonzero"/></clipPath><clipPath id="f9fd037c9b"><path d="M 257 182 L 323.410156 182 L 323.410156 193 L 257 193 Z M 257 182 " clip-rule="nonzero"/></clipPath><clipPath id="df317474af"><path d="M 257 197 L 323.410156 197 L 323.410156 209 L 257 209 Z M 257 197 " clip-rule="nonzero"/></clipPath><clipPath id="f810a1d9a6"><path d="M 126 56.175781 L 194 56.175781 L 194 170 L 126 170 Z M 126 56.175781 " clip-rule="nonzero"/></clipPath></defs><rect x="-37.5" width="450" fill="#ffffff" y="-37.499999" height="449.999989" fill-opacity="1"/><rect x="-37.5" width="450" fill="#feefea" y="-37.499999" height="449.999989" fill-opacity="1"/><g clip-path="url(#eb5ce4a854)"><path fill="#421b37" d="M 317.988281 150.800781 C 317.382812 150.800781 316.832031 150.390625 316.679688 149.78125 C 315.5 145.074219 314.03125 140.390625 312.3125 135.851562 C 312.050781 135.15625 312.402344 134.378906 313.097656 134.117188 C 313.796875 133.855469 314.574219 134.207031 314.839844 134.902344 C 316.59375 139.535156 318.09375 144.320312 319.296875 149.125 C 319.480469 149.847656 319.039062 150.578125 318.316406 150.757812 C 318.207031 150.785156 318.097656 150.800781 317.988281 150.800781 Z M 307.5625 123.25 C 307.074219 123.25 306.601562 122.984375 306.363281 122.519531 C 304.132812 118.214844 301.625 113.984375 298.914062 109.957031 C 298.496094 109.339844 298.660156 108.503906 299.28125 108.085938 C 299.898438 107.671875 300.738281 107.835938 301.152344 108.453125 C 303.925781 112.570312 306.484375 116.886719 308.761719 121.285156 C 309.105469 121.945312 308.84375 122.757812 308.179688 123.097656 C 307.984375 123.199219 307.773438 123.25 307.5625 123.25 Z M 291.09375 98.796875 C 290.710938 98.796875 290.332031 98.636719 290.066406 98.324219 C 286.910156 94.632812 283.503906 91.082031 279.945312 87.773438 C 279.402344 87.265625 279.371094 86.414062 279.878906 85.871094 C 280.386719 85.328125 281.242188 85.296875 281.789062 85.804688 C 285.421875 89.183594 288.898438 92.808594 292.121094 96.578125 C 292.605469 97.140625 292.539062 97.992188 291.96875 98.476562 C 291.714844 98.691406 291.402344 98.796875 291.09375 98.796875 Z M 269.484375 78.707031 C 269.207031 78.707031 268.925781 78.625 268.683594 78.445312 C 264.769531 75.5625 260.644531 72.875 256.429688 70.460938 C 255.78125 70.09375 255.558594 69.269531 255.929688 68.625 C 256.300781 67.980469 257.125 67.757812 257.773438 68.125 C 262.078125 70.589844 266.289062 73.332031 270.289062 76.277344 C 270.886719 76.71875 271.015625 77.5625 270.574219 78.160156 C 270.308594 78.519531 269.898438 78.707031 269.484375 78.707031 Z M 243.863281 64.046875 C 243.6875 64.046875 243.507812 64.011719 243.332031 63.9375 C 238.859375 62.023438 234.230469 60.347656 229.566406 58.964844 C 228.851562 58.75 228.445312 58 228.660156 57.289062 C 228.871094 56.574219 229.625 56.167969 230.339844 56.382812 C 235.101562 57.796875 239.828125 59.507812 244.398438 61.460938 C 245.082031 61.753906 245.398438 62.546875 245.105469 63.230469 C 244.886719 63.742188 244.386719 64.046875 243.863281 64.046875 Z M 243.863281 64.046875 " fill-opacity="1" fill-rule="nonzero"/></g><path fill="#421b37" d="M 70.011719 219.445312 C 69.433594 219.445312 68.898438 219.070312 68.722656 218.488281 C 67.277344 213.75 66.097656 208.875 65.210938 203.996094 C 65.078125 203.261719 65.5625 202.5625 66.296875 202.429688 C 67.03125 202.296875 67.734375 202.785156 67.867188 203.515625 C 68.734375 208.292969 69.890625 213.066406 71.304688 217.707031 C 71.523438 218.417969 71.121094 219.171875 70.40625 219.386719 C 70.277344 219.425781 70.144531 219.445312 70.011719 219.445312 Z M 64.738281 190.457031 C 64.035156 190.457031 63.441406 189.910156 63.394531 189.195312 C 63.210938 186.390625 63.121094 183.535156 63.121094 180.710938 C 63.121094 178.574219 63.171875 176.414062 63.277344 174.289062 C 63.3125 173.546875 63.945312 172.972656 64.691406 173.007812 C 65.4375 173.046875 66.011719 173.675781 65.972656 174.417969 C 65.871094 176.503906 65.820312 178.617188 65.820312 180.710938 C 65.820312 183.476562 65.910156 186.273438 66.089844 189.023438 C 66.136719 189.765625 65.574219 190.40625 64.828125 190.453125 C 64.800781 190.453125 64.769531 190.457031 64.738281 190.457031 Z M 66.191406 161.03125 C 66.117188 161.03125 66.042969 161.023438 65.96875 161.011719 C 65.234375 160.890625 64.734375 160.199219 64.855469 159.464844 C 65.664062 154.566406 66.769531 149.667969 68.136719 144.90625 C 68.34375 144.191406 69.089844 143.777344 69.808594 143.984375 C 70.523438 144.1875 70.9375 144.933594 70.734375 145.648438 C 69.394531 150.3125 68.3125 155.109375 67.519531 159.902344 C 67.410156 160.5625 66.839844 161.03125 66.191406 161.03125 Z M 74.328125 132.691406 C 74.15625 132.691406 73.980469 132.660156 73.808594 132.589844 C 73.121094 132.300781 72.796875 131.515625 73.082031 130.828125 C 74.996094 126.253906 77.195312 121.742188 79.625 117.414062 C 79.988281 116.765625 80.8125 116.535156 81.464844 116.898438 C 82.113281 117.261719 82.34375 118.082031 81.980469 118.730469 C 79.601562 122.96875 77.445312 127.386719 75.574219 131.863281 C 75.359375 132.378906 74.859375 132.691406 74.328125 132.691406 Z M 88.761719 106.980469 C 88.488281 106.980469 88.210938 106.898438 87.972656 106.726562 C 87.367188 106.289062 87.230469 105.449219 87.667969 104.84375 C 90.574219 100.828125 93.75 96.9375 97.097656 93.277344 C 97.601562 92.726562 98.457031 92.6875 99.007812 93.191406 C 99.558594 93.691406 99.597656 94.542969 99.09375 95.09375 C 95.8125 98.675781 92.703125 102.488281 89.859375 106.421875 C 89.59375 106.785156 89.179688 106.980469 88.761719 106.980469 Z M 108.675781 85.222656 C 108.300781 85.222656 107.925781 85.066406 107.660156 84.757812 C 107.167969 84.199219 107.226562 83.347656 107.789062 82.859375 C 111.535156 79.605469 115.511719 76.53125 119.601562 73.726562 C 120.214844 73.308594 121.054688 73.460938 121.476562 74.074219 C 121.902344 74.6875 121.746094 75.527344 121.128906 75.949219 C 117.125 78.695312 113.234375 81.703125 109.5625 84.890625 C 109.308594 85.113281 108.992188 85.222656 108.675781 85.222656 Z M 133.015625 68.542969 C 132.53125 68.542969 132.0625 68.285156 131.820312 67.828125 C 131.46875 67.171875 131.722656 66.355469 132.378906 66.007812 C 136.769531 63.6875 141.339844 61.601562 145.964844 59.804688 C 146.65625 59.535156 147.441406 59.878906 147.710938 60.570312 C 147.980469 61.261719 147.636719 62.042969 146.941406 62.3125 C 142.417969 64.074219 137.941406 66.117188 133.644531 68.386719 C 133.441406 68.492188 133.226562 68.542969 133.015625 68.542969 Z M 133.015625 68.542969 " fill-opacity="1" fill-rule="nonzero"/><g clip-path="url(#9b8e2a939f)"><path fill="#421b37" d="M 193.148438 310.421875 C 189.019531 310.421875 184.847656 310.226562 180.757812 309.839844 C 180.015625 309.769531 179.472656 309.113281 179.542969 308.371094 C 179.613281 307.632812 180.269531 307.089844 181.011719 307.160156 C 185.019531 307.535156 189.101562 307.726562 193.148438 307.726562 C 193.976562 307.726562 194.816406 307.71875 195.644531 307.703125 C 195.652344 307.703125 195.660156 307.703125 195.667969 307.703125 C 196.402344 307.703125 197.003906 308.289062 197.019531 309.023438 C 197.03125 309.769531 196.441406 310.382812 195.695312 310.398438 C 194.851562 310.414062 193.996094 310.421875 193.148438 310.421875 Z M 210.417969 309.277344 C 209.75 309.277344 209.171875 308.785156 209.082031 308.109375 C 208.980469 307.371094 209.5 306.691406 210.238281 306.59375 C 215.066406 305.949219 219.898438 305.015625 224.609375 303.824219 C 225.332031 303.640625 226.066406 304.074219 226.25 304.796875 C 226.433594 305.515625 225.996094 306.25 225.273438 306.433594 C 220.464844 307.652344 215.527344 308.605469 210.597656 309.265625 C 210.535156 309.273438 210.476562 309.277344 210.417969 309.277344 Z M 166.261719 307.613281 C 166.171875 307.613281 166.078125 307.605469 165.980469 307.585938 C 161.121094 306.554688 156.269531 305.230469 151.5625 303.644531 C 150.855469 303.40625 150.476562 302.644531 150.714844 301.9375 C 150.953125 301.234375 151.71875 300.855469 152.425781 301.09375 C 157.035156 302.644531 161.78125 303.941406 166.542969 304.949219 C 167.273438 305.105469 167.738281 305.820312 167.582031 306.546875 C 167.449219 307.179688 166.886719 307.613281 166.261719 307.613281 Z M 166.261719 307.613281 " fill-opacity="1" fill-rule="nonzero"/></g><path fill="#eeffc9" d="M 287.628906 180.710938 C 287.628906 182.253906 287.589844 183.792969 287.515625 185.335938 C 287.4375 186.875 287.324219 188.414062 287.175781 189.949219 C 287.023438 191.484375 286.832031 193.011719 286.605469 194.539062 C 286.378906 196.066406 286.117188 197.585938 285.8125 199.097656 C 285.511719 200.609375 285.171875 202.113281 284.796875 203.609375 C 284.421875 205.105469 284.007812 206.59375 283.5625 208.070312 C 283.113281 209.542969 282.628906 211.007812 282.105469 212.460938 C 281.585938 213.914062 281.027344 215.351562 280.4375 216.777344 C 279.84375 218.203125 279.21875 219.613281 278.558594 221.007812 C 277.898438 222.402344 277.203125 223.777344 276.472656 225.136719 C 275.746094 226.5 274.980469 227.839844 274.1875 229.164062 C 273.390625 230.484375 272.566406 231.789062 271.707031 233.070312 C 270.847656 234.355469 269.957031 235.613281 269.035156 236.851562 C 268.117188 238.09375 267.164062 239.308594 266.183594 240.5 C 265.203125 241.691406 264.191406 242.859375 263.15625 244.003906 C 262.117188 245.144531 261.050781 246.261719 259.957031 247.351562 C 258.863281 248.445312 257.742188 249.507812 256.597656 250.542969 C 255.453125 251.578125 254.28125 252.585938 253.085938 253.5625 C 251.890625 254.542969 250.671875 255.492188 249.429688 256.410156 C 248.1875 257.328125 246.925781 258.21875 245.640625 259.074219 C 244.355469 259.929688 243.046875 260.753906 241.722656 261.546875 C 240.394531 262.339844 239.050781 263.101562 237.6875 263.828125 C 236.324219 264.554688 234.941406 265.25 233.546875 265.910156 C 232.148438 266.566406 230.734375 267.191406 229.304688 267.785156 C 227.878906 268.375 226.433594 268.929688 224.980469 269.449219 C 223.523438 269.96875 222.054688 270.453125 220.574219 270.898438 C 219.097656 271.347656 217.605469 271.757812 216.105469 272.132812 C 214.605469 272.507812 213.097656 272.84375 211.582031 273.148438 C 210.066406 273.449219 208.542969 273.710938 207.011719 273.9375 C 205.484375 274.164062 203.949219 274.351562 202.410156 274.503906 C 200.871094 274.65625 199.332031 274.769531 197.785156 274.84375 C 196.242188 274.917969 194.695312 274.957031 193.148438 274.957031 C 191.605469 274.957031 190.058594 274.917969 188.515625 274.84375 C 186.96875 274.769531 185.429688 274.65625 183.890625 274.503906 C 182.351562 274.351562 180.816406 274.164062 179.289062 273.9375 C 177.757812 273.710938 176.234375 273.449219 174.71875 273.148438 C 173.203125 272.84375 171.695312 272.507812 170.195312 272.132812 C 168.695312 271.757812 167.203125 271.347656 165.722656 270.898438 C 164.246094 270.453125 162.777344 269.96875 161.320312 269.449219 C 159.867188 268.929688 158.421875 268.375 156.996094 267.785156 C 155.566406 267.191406 154.152344 266.566406 152.753906 265.910156 C 151.359375 265.25 149.976562 264.554688 148.613281 263.828125 C 147.25 263.101562 145.90625 262.339844 144.578125 261.546875 C 143.253906 260.753906 141.945312 259.929688 140.660156 259.074219 C 139.375 258.21875 138.113281 257.328125 136.871094 256.410156 C 135.628906 255.492188 134.410156 254.542969 133.214844 253.5625 C 132.019531 252.585938 130.847656 251.578125 129.703125 250.542969 C 128.554688 249.507812 127.4375 248.445312 126.34375 247.351562 C 125.25 246.261719 124.183594 245.144531 123.144531 244.003906 C 122.109375 242.859375 121.097656 241.691406 120.117188 240.5 C 119.136719 239.308594 118.183594 238.09375 117.265625 236.851562 C 116.34375 235.613281 115.453125 234.355469 114.59375 233.070312 C 113.734375 231.789062 112.90625 230.484375 112.113281 229.164062 C 111.316406 227.839844 110.554688 226.5 109.828125 225.136719 C 109.097656 223.777344 108.402344 222.402344 107.742188 221.007812 C 107.082031 219.613281 106.453125 218.203125 105.863281 216.777344 C 105.273438 215.351562 104.714844 213.914062 104.195312 212.460938 C 103.671875 211.007812 103.1875 209.542969 102.738281 208.070312 C 102.289062 206.59375 101.878906 205.105469 101.503906 203.609375 C 101.128906 202.113281 100.789062 200.609375 100.488281 199.097656 C 100.183594 197.585938 99.921875 196.066406 99.695312 194.539062 C 99.46875 193.011719 99.277344 191.484375 99.125 189.949219 C 98.976562 188.414062 98.859375 186.875 98.785156 185.335938 C 98.710938 183.792969 98.671875 182.253906 98.671875 180.710938 C 98.671875 179.167969 98.710938 177.625 98.785156 176.085938 C 98.859375 174.546875 98.976562 173.007812 99.125 171.472656 C 99.277344 169.9375 99.46875 168.40625 99.695312 166.882812 C 99.921875 165.355469 100.183594 163.835938 100.488281 162.324219 C 100.789062 160.8125 101.128906 159.304688 101.503906 157.808594 C 101.878906 156.3125 102.289062 154.828125 102.738281 153.351562 C 103.1875 151.875 103.671875 150.410156 104.195312 148.960938 C 104.714844 147.507812 105.273438 146.066406 105.863281 144.644531 C 106.453125 143.21875 107.082031 141.808594 107.742188 140.414062 C 108.402344 139.019531 109.097656 137.644531 109.828125 136.28125 C 110.554688 134.921875 111.316406 133.582031 112.113281 132.257812 C 112.90625 130.933594 113.734375 129.632812 114.59375 128.347656 C 115.453125 127.066406 116.34375 125.804688 117.265625 124.566406 C 118.183594 123.328125 119.136719 122.113281 120.117188 120.921875 C 121.097656 119.726562 122.109375 118.558594 123.144531 117.417969 C 124.183594 116.273438 125.25 115.15625 126.34375 114.066406 C 127.4375 112.976562 128.554688 111.914062 129.703125 110.878906 C 130.847656 109.839844 132.019531 108.835938 133.214844 107.855469 C 134.410156 106.878906 135.628906 105.929688 136.871094 105.011719 C 138.113281 104.089844 139.375 103.203125 140.660156 102.347656 C 141.945312 101.488281 143.253906 100.664062 144.578125 99.871094 C 145.90625 99.078125 147.25 98.320312 148.613281 97.589844 C 149.976562 96.863281 151.359375 96.171875 152.753906 95.511719 C 154.152344 94.851562 155.566406 94.226562 156.996094 93.636719 C 158.421875 93.046875 159.867188 92.492188 161.320312 91.972656 C 162.777344 91.453125 164.246094 90.96875 165.722656 90.519531 C 167.203125 90.074219 168.695312 89.664062 170.195312 89.289062 C 171.695312 88.914062 173.203125 88.574219 174.71875 88.273438 C 176.234375 87.972656 177.757812 87.710938 179.289062 87.484375 C 180.816406 87.257812 182.351562 87.066406 183.890625 86.917969 C 185.429688 86.765625 186.96875 86.652344 188.515625 86.578125 C 190.058594 86.5 191.605469 86.464844 193.148438 86.464844 C 194.695312 86.464844 196.242188 86.5 197.785156 86.578125 C 199.332031 86.652344 200.871094 86.765625 202.410156 86.917969 C 203.949219 87.066406 205.484375 87.257812 207.011719 87.484375 C 208.542969 87.710938 210.066406 87.972656 211.582031 88.273438 C 213.097656 88.574219 214.605469 88.914062 216.105469 89.289062 C 217.605469 89.664062 219.097656 90.074219 220.574219 90.519531 C 222.054688 90.96875 223.523438 91.453125 224.980469 91.972656 C 226.433594 92.492188 227.878906 93.046875 229.304688 93.636719 C 230.734375 94.226562 232.148438 94.851562 233.546875 95.511719 C 234.941406 96.171875 236.324219 96.863281 237.6875 97.589844 C 239.050781 98.320312 240.394531 99.078125 241.722656 99.871094 C 243.046875 100.664062 244.355469 101.488281 245.640625 102.347656 C 246.925781 103.203125 248.1875 104.089844 249.429688 105.011719 C 250.671875 105.929688 251.890625 106.878906 253.085938 107.855469 C 254.28125 108.835938 255.453125 109.839844 256.597656 110.878906 C 257.742188 111.914062 258.863281 112.976562 259.957031 114.066406 C 261.050781 115.15625 262.117188 116.273438 263.15625 117.417969 C 264.191406 118.558594 265.203125 119.726562 266.183594 120.921875 C 267.164062 122.113281 268.117188 123.328125 269.035156 124.566406 C 269.957031 125.804688 270.847656 127.066406 271.707031 128.347656 C 272.566406 129.632812 273.390625 130.933594 274.1875 132.257812 C 274.980469 133.582031 275.746094 134.921875 276.472656 136.28125 C 277.203125 137.644531 277.898438 139.019531 278.558594 140.414062 C 279.21875 141.808594 279.84375 143.21875 280.4375 144.644531 C 281.027344 146.066406 281.585938 147.507812 282.105469 148.960938 C 282.628906 150.410156 283.113281 151.875 283.5625 153.351562 C 284.007812 154.828125 284.421875 156.3125 284.796875 157.808594 C 285.171875 159.304688 285.511719 160.8125 285.8125 162.324219 C 286.117188 163.835938 286.378906 165.355469 286.605469 166.882812 C 286.832031 168.40625 287.023438 169.9375 287.175781 171.472656 C 287.324219 173.007812 287.4375 174.546875 287.515625 176.085938 C 287.589844 177.625 287.628906 179.167969 287.628906 180.710938 Z M 287.628906 180.710938 " fill-opacity="1" fill-rule="nonzero"/><path fill="#ffd477" d="M 264.039062 172.207031 L 271.308594 243.136719 L 309.691406 243.136719 L 316.960938 172.207031 Z M 264.039062 172.207031 " fill-opacity="1" fill-rule="nonzero"/><path fill="#421b37" d="M 309.691406 244.5 L 271.308594 244.5 C 270.605469 244.5 270.019531 243.96875 269.949219 243.273438 L 262.675781 172.347656 C 262.601562 171.597656 263.148438 170.929688 263.898438 170.851562 C 264.648438 170.777344 265.320312 171.320312 265.398438 172.070312 L 272.542969 241.773438 L 308.457031 241.773438 L 315.601562 172.070312 C 315.679688 171.320312 316.347656 170.773438 317.101562 170.851562 C 317.851562 170.929688 318.398438 171.597656 318.320312 172.347656 L 311.050781 243.273438 C 310.980469 243.96875 310.390625 244.5 309.691406 244.5 Z M 309.691406 244.5 " fill-opacity="1" fill-rule="nonzero"/><path fill="#ffffff" d="M 321.953125 171.667969 L 321.011719 167.460938 C 320.539062 165.351562 318.664062 163.851562 316.496094 163.851562 L 264.503906 163.851562 C 262.335938 163.851562 260.457031 165.351562 259.984375 167.460938 L 259.046875 171.667969 Z M 321.953125 171.667969 " fill-opacity="1" fill-rule="nonzero"/><g clip-path="url(#5a44cb383a)"><path fill="#421b37" d="M 321.953125 173.03125 L 259.046875 173.03125 C 258.632812 173.03125 258.238281 172.84375 257.980469 172.523438 C 257.71875 172.199219 257.621094 171.777344 257.710938 171.371094 L 258.652344 167.164062 C 259.269531 164.410156 261.671875 162.488281 264.503906 162.488281 L 316.496094 162.488281 C 319.324219 162.488281 321.730469 164.410156 322.347656 167.164062 L 323.285156 171.371094 C 323.375 171.777344 323.277344 172.199219 323.019531 172.523438 C 322.757812 172.84375 322.367188 173.03125 321.953125 173.03125 Z M 260.75 170.304688 L 320.246094 170.304688 L 319.675781 167.757812 C 319.34375 166.261719 318.035156 165.214844 316.496094 165.214844 L 264.503906 165.214844 C 262.964844 165.214844 261.65625 166.261719 261.320312 167.757812 Z M 260.75 170.304688 " fill-opacity="1" fill-rule="nonzero"/></g><path fill="#96f269" d="M 316.960938 189.453125 L 315.851562 202.683594 L 265.144531 202.683594 L 264.035156 189.453125 Z M 316.960938 189.453125 " fill-opacity="1" fill-rule="nonzero"/><path fill="#421b37" d="M 315.851562 204.046875 L 265.144531 204.046875 C 264.433594 204.046875 263.839844 203.503906 263.78125 202.796875 L 262.671875 189.566406 C 262.640625 189.1875 262.769531 188.8125 263.027344 188.53125 C 263.289062 188.25 263.652344 188.089844 264.035156 188.089844 L 316.960938 188.089844 C 317.34375 188.089844 317.707031 188.25 317.96875 188.53125 C 318.226562 188.8125 318.355469 189.1875 318.324219 189.566406 L 317.214844 202.796875 C 317.15625 203.503906 316.5625 204.046875 315.851562 204.046875 Z M 266.402344 201.320312 L 314.59375 201.320312 L 315.476562 190.816406 L 265.519531 190.816406 Z M 266.402344 201.320312 " fill-opacity="1" fill-rule="nonzero"/><path fill="#ffffff" d="M 321.953125 191.347656 L 321.011719 187.140625 C 320.539062 185.03125 318.664062 183.53125 316.496094 183.53125 L 264.503906 183.53125 C 262.335938 183.53125 260.457031 185.03125 259.984375 187.140625 L 259.046875 191.347656 Z M 321.953125 191.347656 " fill-opacity="1" fill-rule="nonzero"/><g clip-path="url(#f9fd037c9b)"><path fill="#421b37" d="M 321.953125 192.710938 L 259.046875 192.710938 C 258.632812 192.710938 258.238281 192.523438 257.980469 192.199219 C 257.71875 191.878906 257.621094 191.453125 257.710938 191.050781 L 258.652344 186.84375 C 259.269531 184.089844 261.671875 182.167969 264.503906 182.167969 L 316.496094 182.167969 C 319.324219 182.167969 321.730469 184.089844 322.347656 186.84375 L 323.285156 191.050781 C 323.375 191.453125 323.277344 191.878906 323.019531 192.199219 C 322.757812 192.523438 322.367188 192.710938 321.953125 192.710938 Z M 260.75 189.984375 L 320.246094 189.984375 L 319.675781 187.4375 C 319.34375 185.941406 318.035156 184.894531 316.496094 184.894531 L 264.503906 184.894531 C 262.964844 184.894531 261.65625 185.941406 261.320312 187.4375 Z M 260.75 189.984375 " fill-opacity="1" fill-rule="nonzero"/></g><path fill="#ffd477" d="M 264.039062 207.671875 L 271.308594 278.597656 L 309.691406 278.597656 L 316.960938 207.671875 Z M 264.039062 207.671875 " fill-opacity="1" fill-rule="nonzero"/><path fill="#421b37" d="M 309.691406 279.960938 L 271.308594 279.960938 C 270.605469 279.960938 270.019531 279.433594 269.949219 278.738281 L 262.675781 207.8125 C 262.601562 207.0625 263.148438 206.390625 263.898438 206.316406 C 264.648438 206.238281 265.320312 206.785156 265.398438 207.535156 L 272.542969 277.234375 L 308.457031 277.234375 L 315.601562 207.535156 C 315.679688 206.785156 316.347656 206.238281 317.101562 206.316406 C 317.851562 206.390625 318.398438 207.0625 318.320312 207.8125 L 311.050781 278.738281 C 310.980469 279.433594 310.390625 279.960938 309.691406 279.960938 Z M 309.691406 279.960938 " fill-opacity="1" fill-rule="nonzero"/><path fill="#ffffff" d="M 321.953125 207.132812 L 321.011719 202.925781 C 320.539062 200.816406 318.664062 199.316406 316.496094 199.316406 L 264.503906 199.316406 C 262.335938 199.316406 260.457031 200.816406 259.984375 202.925781 L 259.046875 207.132812 Z M 321.953125 207.132812 " fill-opacity="1" fill-rule="nonzero"/><g clip-path="url(#df317474af)"><path fill="#421b37" d="M 321.953125 208.496094 L 259.046875 208.496094 C 258.632812 208.496094 258.238281 208.308594 257.980469 207.984375 C 257.71875 207.660156 257.621094 207.238281 257.710938 206.835938 L 258.652344 202.628906 C 259.269531 199.875 261.671875 197.949219 264.503906 197.949219 L 316.496094 197.949219 C 319.324219 197.949219 321.730469 199.875 322.347656 202.628906 L 323.285156 206.835938 C 323.375 207.238281 323.277344 207.660156 323.019531 207.984375 C 322.757812 208.308594 322.367188 208.496094 321.953125 208.496094 Z M 260.75 205.769531 L 320.246094 205.769531 L 319.675781 203.222656 C 319.34375 201.722656 318.035156 200.679688 316.496094 200.679688 L 264.503906 200.679688 C 262.964844 200.679688 261.65625 201.722656 261.320312 203.222656 Z M 260.75 205.769531 " fill-opacity="1" fill-rule="nonzero"/></g><path fill="#ffffff" d="M 235.675781 221.824219 L 207.410156 270.660156 C 202.722656 278.761719 208.582031 288.886719 217.960938 288.886719 L 274.488281 288.886719 C 283.863281 288.886719 289.726562 278.761719 285.035156 270.660156 L 256.773438 221.824219 C 252.085938 213.726562 240.363281 213.726562 235.675781 221.824219 Z M 235.675781 221.824219 " fill-opacity="1" fill-rule="nonzero"/><path fill="#ffd477" d="M 247.515625 237.5 L 235.136719 215.570312 C 235.09375 215.492188 234.980469 215.492188 234.9375 215.570312 L 221.148438 239.109375 C 221.117188 239.164062 221.136719 239.234375 221.191406 239.269531 L 237.113281 248.722656 C 237.167969 248.757812 237.238281 248.738281 237.269531 248.683594 L 245.585938 234.484375 C 245.628906 234.40625 245.742188 234.40625 245.789062 234.484375 L 250.71875 243.09375 L 251.523438 244.5 C 251.554688 244.554688 251.535156 244.628906 251.476562 244.660156 L 247.289062 246.894531 C 246.414062 247.359375 246.671875 248.675781 247.660156 248.78125 L 255.097656 249.550781 L 265.125 250.59375 C 265.539062 250.636719 265.933594 250.425781 266.125 250.0625 L 270.820312 241.167969 L 274.300781 234.574219 C 274.765625 233.695312 273.8125 232.75 272.933594 233.21875 L 268.46875 235.601562 C 268.414062 235.628906 268.351562 235.609375 268.316406 235.558594 L 267.222656 233.878906 C 267.222656 233.878906 267.222656 233.875 267.21875 233.871094 L 256.726562 215.554688 C 256.707031 215.519531 256.667969 215.5 256.628906 215.5 L 245.507812 215.445312 L 235.105469 215.394531 C 235.0625 215.394531 235.023438 215.417969 235.003906 215.453125 L 225.28125 232.054688 Z M 247.515625 237.5 " fill-opacity="1" fill-rule="nonzero"/><path fill="#421b37" d="M 265.234375 251.964844 C 265.152344 251.964844 265.070312 251.960938 264.988281 251.949219 L 247.519531 250.136719 C 246.472656 250.027344 245.636719 249.261719 245.433594 248.234375 C 245.230469 247.207031 245.71875 246.183594 246.644531 245.691406 L 249.699219 244.0625 L 249.53125 243.765625 L 246.34375 238.199219 C 246.335938 238.191406 246.328125 238.179688 246.324219 238.167969 L 246.300781 238.128906 L 245.675781 237.035156 L 238.449219 249.371094 C 238.253906 249.710938 237.917969 249.960938 237.535156 250.058594 C 237.15625 250.15625 236.746094 250.09375 236.410156 249.894531 L 220.492188 240.4375 C 220.480469 240.433594 220.472656 240.429688 220.464844 240.421875 C 219.796875 240.003906 219.570312 239.140625 219.949219 238.453125 C 219.957031 238.441406 219.960938 238.433594 219.96875 238.421875 L 233.820312 214.765625 C 234.085938 214.3125 234.578125 214.03125 235.105469 214.03125 L 245.515625 214.082031 L 256.632812 214.136719 C 257.15625 214.136719 257.652344 214.421875 257.914062 214.878906 L 268.382812 233.15625 L 268.839844 233.855469 L 272.289062 232.015625 C 273.21875 231.523438 274.34375 231.6875 275.085938 232.429688 C 275.832031 233.167969 276 234.285156 275.511719 235.210938 L 267.332031 250.699219 C 266.917969 251.484375 266.109375 251.964844 265.234375 251.964844 Z M 248.96875 247.542969 L 265.027344 249.214844 L 272.546875 234.96875 L 269.113281 236.800781 C 268.433594 237.160156 267.605469 236.953125 267.179688 236.320312 C 267.175781 236.3125 267.171875 236.308594 267.167969 236.300781 L 266.09375 234.644531 C 266.070312 234.613281 266.050781 234.582031 266.03125 234.550781 L 255.898438 216.859375 L 245.5 216.808594 L 237.382812 216.769531 L 248.683594 236.789062 L 252.710938 243.824219 C 252.910156 244.167969 252.957031 244.589844 252.847656 244.972656 C 252.734375 245.355469 252.46875 245.679688 252.113281 245.867188 Z M 236.089844 247.992188 C 236.089844 247.996094 236.089844 247.996094 236.085938 248 Z M 237.816406 247.554688 C 237.820312 247.558594 237.820312 247.558594 237.824219 247.558594 C 237.820312 247.558594 237.820312 247.558594 237.816406 247.554688 Z M 237.816406 247.554688 Z M 222.953125 238.730469 L 236.726562 246.90625 L 244.125 234.273438 L 235.015625 218.132812 L 226.460938 232.742188 C 226.453125 232.757812 226.445312 232.769531 226.4375 232.78125 Z M 250.335938 245.171875 C 250.335938 245.175781 250.335938 245.175781 250.335938 245.175781 Z M 250.832031 243.457031 C 250.828125 243.460938 250.824219 243.460938 250.820312 243.464844 Z M 256.613281 216.863281 C 256.621094 216.863281 256.625 216.863281 256.628906 216.863281 Z M 256.613281 216.863281 " fill-opacity="1" fill-rule="nonzero"/><path fill="#96f269" d="M 265.210938 274.332031 L 290.453125 274.371094 C 290.539062 274.371094 290.597656 274.273438 290.550781 274.195312 L 276.765625 250.65625 C 276.730469 250.601562 276.660156 250.582031 276.605469 250.613281 L 260.519531 259.785156 C 260.460938 259.816406 260.441406 259.886719 260.472656 259.941406 L 268.792969 274.144531 C 268.835938 274.21875 268.78125 274.316406 268.691406 274.316406 L 258.746094 274.367188 L 257.121094 274.371094 C 257.054688 274.371094 257.003906 274.316406 257.003906 274.253906 L 257.113281 269.519531 C 257.136719 268.527344 255.855469 268.105469 255.28125 268.914062 L 250.953125 274.988281 L 245.109375 283.179688 C 244.871094 283.519531 244.863281 283.964844 245.085938 284.308594 L 250.546875 292.757812 L 254.59375 299.023438 C 255.132812 299.855469 256.429688 299.492188 256.453125 298.5 L 256.566406 293.453125 C 256.566406 293.394531 256.613281 293.34375 256.675781 293.34375 L 258.679688 293.222656 C 258.683594 293.21875 258.6875 293.21875 258.6875 293.21875 L 279.851562 293.117188 C 279.890625 293.117188 279.929688 293.097656 279.949219 293.058594 L 285.460938 283.433594 L 290.621094 274.429688 C 290.640625 274.394531 290.640625 274.347656 290.621094 274.3125 L 280.894531 257.710938 Z M 265.210938 274.332031 " fill-opacity="1" fill-rule="nonzero"/><path fill="#421b37" d="M 255.433594 300.847656 C 254.644531 300.847656 253.890625 300.453125 253.445312 299.761719 L 243.9375 285.046875 C 243.40625 284.226562 243.429688 283.183594 243.996094 282.390625 L 254.167969 268.125 C 254.773438 267.269531 255.851562 266.917969 256.851562 267.25 C 257.847656 267.578125 258.503906 268.503906 258.480469 269.550781 L 258.402344 273.003906 L 258.742188 273.003906 L 265.152344 272.972656 C 265.171875 272.96875 265.191406 272.96875 265.210938 272.96875 L 265.335938 272.96875 L 266.519531 272.964844 L 259.292969 260.628906 C 258.882812 259.925781 259.121094 259.019531 259.828125 258.605469 C 259.832031 258.605469 259.835938 258.601562 259.839844 258.601562 L 275.921875 249.433594 C 276.257812 249.242188 276.644531 249.1875 277.023438 249.28125 C 277.402344 249.375 277.734375 249.621094 277.9375 249.957031 C 277.9375 249.960938 277.941406 249.964844 277.945312 249.96875 L 282.050781 256.976562 C 282.058594 256.992188 282.066406 257.007812 282.074219 257.023438 L 291.734375 273.515625 C 291.738281 273.519531 291.738281 273.519531 291.742188 273.523438 L 291.800781 273.625 C 292.066406 274.078125 292.070312 274.644531 291.808594 275.101562 L 281.136719 293.738281 C 280.882812 294.175781 280.414062 294.460938 279.902344 294.480469 C 279.886719 294.480469 279.871094 294.480469 279.855469 294.480469 L 258.765625 294.582031 C 258.765625 294.582031 258.765625 294.582031 258.761719 294.582031 L 257.90625 294.632812 L 257.816406 298.53125 C 257.792969 299.582031 257.097656 300.472656 256.085938 300.757812 C 255.871094 300.820312 255.652344 300.847656 255.433594 300.847656 Z M 246.363281 283.773438 L 255.113281 297.308594 L 255.199219 293.425781 C 255.21875 292.652344 255.832031 292.023438 256.597656 291.980469 L 258.539062 291.863281 C 258.589844 291.859375 258.636719 291.855469 258.6875 291.855469 L 279.121094 291.757812 L 288.300781 275.730469 L 265.339844 275.695312 L 258.753906 275.730469 L 257.125 275.734375 C 256.722656 275.734375 256.335938 275.570312 256.0625 275.289062 C 255.785156 275.007812 255.628906 274.617188 255.640625 274.21875 L 255.71875 270.652344 Z M 269.691406 272.976562 L 288.269531 273.003906 L 276.210938 252.410156 L 262.292969 260.34375 Z M 268.683594 272.953125 C 268.679688 272.953125 268.675781 272.953125 268.671875 272.953125 Z M 268.683594 272.953125 " fill-opacity="1" fill-rule="nonzero"/><path fill="#ffffff" d="M 225.460938 269.308594 L 212.859375 291.113281 C 212.816406 291.191406 212.871094 291.285156 212.960938 291.285156 L 240.308594 291.085938 C 240.371094 291.085938 240.421875 291.035156 240.421875 290.972656 L 240.453125 272.496094 C 240.453125 272.433594 240.402344 272.382812 240.335938 272.382812 L 223.84375 272.503906 C 223.753906 272.503906 223.699219 272.40625 223.742188 272.328125 L 228.652344 263.707031 L 229.453125 262.300781 C 229.488281 262.242188 229.558594 262.226562 229.613281 262.257812 L 233.679688 264.707031 C 234.53125 265.222656 235.535156 264.328125 235.117188 263.425781 L 231.988281 256.660156 L 227.769531 247.53125 C 227.59375 247.15625 227.210938 246.925781 226.800781 246.945312 L 216.730469 247.460938 L 209.261719 247.84375 C 208.269531 247.894531 207.941406 249.195312 208.792969 249.707031 L 213.125 252.320312 C 213.175781 252.351562 213.195312 252.414062 213.167969 252.46875 L 212.277344 254.265625 C 212.273438 254.265625 212.273438 254.269531 212.273438 254.269531 L 201.828125 272.613281 C 201.808594 272.648438 201.808594 272.695312 201.828125 272.730469 L 207.457031 282.285156 L 212.726562 291.230469 C 212.746094 291.265625 212.785156 291.289062 212.828125 291.289062 L 232.113281 291.148438 Z M 225.460938 269.308594 " fill-opacity="1" fill-rule="nonzero"/><path fill="#421b37" d="M 212.835938 292.652344 C 212.300781 292.652344 211.8125 292.371094 211.546875 291.917969 L 200.648438 273.421875 C 200.644531 273.414062 200.640625 273.40625 200.636719 273.402344 C 200.382812 272.949219 200.382812 272.390625 200.640625 271.941406 L 211.066406 253.628906 L 211.433594 252.894531 L 208.085938 250.875 C 207.1875 250.335938 206.753906 249.289062 207.011719 248.269531 C 207.265625 247.253906 208.144531 246.535156 209.191406 246.480469 L 216.660156 246.101562 L 226.730469 245.585938 C 227.710938 245.539062 228.601562 246.078125 229.007812 246.960938 L 236.359375 262.855469 C 236.796875 263.808594 236.566406 264.914062 235.785156 265.613281 C 235.003906 266.3125 233.871094 266.417969 232.972656 265.875 L 230.007812 264.089844 L 229.839844 264.382812 L 226 271.125 L 240.328125 271.019531 C 241.15625 271.019531 241.820312 271.683594 241.820312 272.5 L 241.789062 290.972656 C 241.789062 291.789062 241.125 292.449219 240.308594 292.449219 L 232.152344 292.511719 C 232.144531 292.511719 232.132812 292.511719 232.125 292.511719 Z M 239.054688 290.96875 C 239.054688 290.96875 239.054688 290.96875 239.054688 290.972656 Z M 224.40625 273.863281 L 215.136719 289.90625 L 239.058594 289.734375 L 239.085938 273.753906 Z M 240.296875 289.722656 C 240.292969 289.722656 240.285156 289.722656 240.28125 289.722656 Z M 203.371094 272.660156 L 212.75 288.578125 L 224.277344 268.628906 C 224.277344 268.625 224.28125 268.617188 224.285156 268.613281 L 228.265625 261.625 C 228.460938 261.28125 228.792969 261.027344 229.179688 260.925781 C 229.566406 260.824219 229.984375 260.886719 230.328125 261.09375 L 233.386719 262.941406 L 226.628906 248.320312 L 210.5 249.144531 L 213.828125 251.152344 C 214.480469 251.542969 214.730469 252.378906 214.402344 253.0625 C 214.398438 253.066406 214.398438 253.070312 214.394531 253.074219 L 213.5 254.871094 C 213.5 254.875 213.496094 254.882812 213.492188 254.886719 C 213.492188 254.886719 213.492188 254.890625 213.492188 254.890625 C 213.480469 254.910156 213.472656 254.925781 213.460938 254.945312 Z M 228.90625 263.425781 C 228.910156 263.429688 228.914062 263.429688 228.917969 263.429688 Z M 230.644531 262.96875 L 230.640625 262.976562 C 230.640625 262.976562 230.644531 262.972656 230.644531 262.96875 Z M 230.644531 262.96875 " fill-opacity="1" fill-rule="nonzero"/><path fill="#ffffff" d="M 241.488281 117.398438 C 241.488281 119.039062 241.40625 120.671875 241.246094 122.300781 C 241.085938 123.929688 240.847656 125.546875 240.527344 127.152344 C 240.207031 128.757812 239.808594 130.34375 239.332031 131.910156 C 238.855469 133.476562 238.300781 135.015625 237.675781 136.527344 C 237.046875 138.039062 236.347656 139.515625 235.570312 140.960938 C 234.796875 142.40625 233.957031 143.808594 233.042969 145.167969 C 232.132812 146.527344 231.15625 147.84375 230.117188 149.109375 C 229.074219 150.371094 227.972656 151.585938 226.8125 152.742188 C 225.652344 153.898438 224.4375 154.996094 223.171875 156.035156 C 221.902344 157.074219 220.585938 158.046875 219.222656 158.957031 C 217.855469 159.867188 216.449219 160.707031 215.003906 161.480469 C 213.554688 162.25 212.074219 162.949219 210.558594 163.574219 C 209.042969 164.203125 207.5 164.753906 205.929688 165.226562 C 204.359375 165.703125 202.769531 166.101562 201.160156 166.421875 C 199.550781 166.738281 197.929688 166.980469 196.296875 167.140625 C 194.664062 167.300781 193.027344 167.378906 191.386719 167.378906 C 189.746094 167.378906 188.109375 167.300781 186.472656 167.140625 C 184.839844 166.980469 183.21875 166.738281 181.609375 166.421875 C 180 166.101562 178.410156 165.703125 176.839844 165.226562 C 175.269531 164.753906 173.726562 164.203125 172.210938 163.574219 C 170.695312 162.949219 169.214844 162.25 167.765625 161.480469 C 166.320312 160.707031 164.914062 159.867188 163.550781 158.957031 C 162.183594 158.046875 160.867188 157.074219 159.601562 156.035156 C 158.332031 154.996094 157.117188 153.898438 155.957031 152.742188 C 154.796875 151.585938 153.695312 150.371094 152.65625 149.109375 C 151.613281 147.84375 150.636719 146.527344 149.726562 145.167969 C 148.816406 143.808594 147.972656 142.40625 147.199219 140.960938 C 146.425781 139.515625 145.722656 138.039062 145.097656 136.527344 C 144.46875 135.015625 143.917969 133.476562 143.441406 131.910156 C 142.964844 130.34375 142.566406 128.757812 142.246094 127.152344 C 141.925781 125.546875 141.683594 123.929688 141.523438 122.300781 C 141.363281 120.671875 141.28125 119.039062 141.28125 117.398438 C 141.28125 115.761719 141.363281 114.128906 141.523438 112.5 C 141.683594 110.871094 141.925781 109.253906 142.246094 107.648438 C 142.566406 106.042969 142.964844 104.457031 143.441406 102.890625 C 143.917969 101.324219 144.46875 99.785156 145.097656 98.273438 C 145.722656 96.761719 146.425781 95.285156 147.199219 93.839844 C 147.972656 92.394531 148.816406 90.992188 149.726562 89.632812 C 150.636719 88.273438 151.613281 86.957031 152.65625 85.691406 C 153.695312 84.429688 154.796875 83.214844 155.957031 82.058594 C 157.117188 80.902344 158.332031 79.804688 159.601562 78.765625 C 160.867188 77.726562 162.183594 76.753906 163.550781 75.84375 C 164.914062 74.933594 166.320312 74.09375 167.765625 73.320312 C 169.214844 72.550781 170.695312 71.851562 172.210938 71.226562 C 173.726562 70.597656 175.269531 70.046875 176.839844 69.574219 C 178.410156 69.097656 180 68.699219 181.609375 68.378906 C 183.21875 68.0625 184.839844 67.820312 186.472656 67.660156 C 188.109375 67.5 189.746094 67.421875 191.386719 67.421875 C 193.027344 67.421875 194.664062 67.5 196.296875 67.660156 C 197.929688 67.820312 199.550781 68.0625 201.160156 68.378906 C 202.769531 68.699219 204.359375 69.097656 205.929688 69.574219 C 207.5 70.046875 209.042969 70.597656 210.558594 71.226562 C 212.074219 71.851562 213.554688 72.550781 215.003906 73.320312 C 216.449219 74.09375 217.855469 74.933594 219.222656 75.84375 C 220.585938 76.753906 221.902344 77.726562 223.171875 78.765625 C 224.4375 79.804688 225.652344 80.902344 226.8125 82.058594 C 227.972656 83.214844 229.074219 84.429688 230.117188 85.691406 C 231.15625 86.957031 232.132812 88.273438 233.042969 89.632812 C 233.957031 90.992188 234.796875 92.394531 235.570312 93.839844 C 236.347656 95.285156 237.046875 96.761719 237.675781 98.273438 C 238.300781 99.785156 238.855469 101.324219 239.332031 102.890625 C 239.808594 104.457031 240.207031 106.042969 240.527344 107.648438 C 240.847656 109.253906 241.085938 110.871094 241.246094 112.5 C 241.40625 114.128906 241.488281 115.761719 241.488281 117.398438 Z M 241.488281 117.398438 " fill-opacity="1" fill-rule="nonzero"/><path fill="#96f269" d="M 182.714844 161.40625 C 163.996094 176.539062 145.339844 164.046875 137.789062 153.101562 C 133.484375 146.859375 123.847656 130.050781 130.558594 105 C 137.675781 78.449219 161.6875 67.40625 165.539062 65.691406 L 162.636719 57.671875 L 191.707031 67.214844 L 175.453125 93.082031 L 172.246094 84.226562 C 172.246094 84.226562 151.265625 95.136719 147.714844 113.800781 C 143.984375 133.398438 156.765625 148.269531 165.671875 154.453125 C 173.84375 160.121094 182.714844 161.40625 182.714844 161.40625 Z M 182.714844 161.40625 " fill-opacity="1" fill-rule="nonzero"/><g clip-path="url(#f810a1d9a6)"><path fill="#421b37" d="M 164.484375 169.773438 C 163.1875 169.773438 161.886719 169.679688 160.585938 169.492188 C 149.820312 167.941406 141.171875 160.40625 136.664062 153.875 C 133.027344 148.605469 130.355469 142.742188 128.71875 136.445312 C 126.105469 126.386719 126.28125 115.6875 129.238281 104.648438 C 130.914062 98.398438 133.648438 92.5 137.359375 87.125 C 140.394531 82.730469 144.101562 78.652344 148.382812 74.996094 C 153.035156 71.027344 158.476562 67.5 163.824219 64.976562 L 161.351562 58.136719 C 161.171875 57.644531 161.289062 57.097656 161.65625 56.722656 C 162.019531 56.347656 162.566406 56.214844 163.0625 56.378906 L 192.132812 65.921875 C 192.535156 66.050781 192.851562 66.359375 192.992188 66.753906 C 193.136719 67.148438 193.089844 67.585938 192.867188 67.941406 L 176.613281 93.808594 C 176.335938 94.25 175.828125 94.496094 175.308594 94.4375 C 174.789062 94.382812 174.34375 94.039062 174.167969 93.546875 L 171.511719 86.210938 C 169.609375 87.34375 165.972656 89.6875 162.171875 93.078125 C 157.160156 97.546875 150.816406 104.8125 149.058594 114.054688 C 145.683594 131.792969 156.320312 146.300781 166.453125 153.332031 C 174.269531 158.757812 182.824219 160.046875 182.910156 160.058594 C 183.445312 160.136719 183.886719 160.523438 184.03125 161.046875 C 184.175781 161.566406 183.996094 162.125 183.574219 162.464844 C 179.832031 165.492188 175.886719 167.605469 171.839844 168.75 C 169.421875 169.429688 166.960938 169.773438 164.484375 169.773438 Z M 164.875 59.84375 L 166.824219 65.226562 C 167.066406 65.898438 166.75 66.644531 166.09375 66.9375 C 159.722656 69.777344 138.421875 80.941406 131.878906 105.351562 C 125.703125 128.402344 133.636719 144.675781 138.914062 152.328125 C 143.09375 158.386719 151.085938 165.367188 160.976562 166.792969 C 167.375 167.714844 173.589844 166.144531 179.480469 162.117188 C 176.089844 161.253906 170.367188 159.371094 164.894531 155.570312 C 162.25 153.738281 155.582031 148.53125 150.757812 139.816406 C 148.621094 135.957031 147.140625 131.914062 146.351562 127.804688 C 145.457031 123.121094 145.460938 118.324219 146.371094 113.546875 C 147.214844 109.105469 149.082031 104.730469 151.914062 100.542969 C 154.15625 97.222656 157.015625 94.007812 160.402344 90.996094 C 166.152344 85.882812 171.394531 83.132812 171.613281 83.015625 C 171.964844 82.835938 172.375 82.8125 172.742188 82.957031 C 173.109375 83.097656 173.394531 83.394531 173.53125 83.761719 L 175.785156 89.988281 L 189.621094 67.964844 Z M 164.875 59.84375 " fill-opacity="1" fill-rule="nonzero"/></g><path fill="#421b37" d="M 142.8125 160.28125 C 142.351562 160.28125 141.90625 160.050781 141.648438 159.632812 C 138.027344 153.78125 136.375 146.941406 136.730469 139.3125 C 137.015625 133.277344 138.550781 126.738281 141.296875 119.878906 C 145.949219 108.265625 152.382812 99.839844 152.652344 99.484375 C 153.113281 98.886719 153.972656 98.777344 154.570312 99.234375 C 155.167969 99.691406 155.28125 100.546875 154.824219 101.144531 C 154.757812 101.230469 148.320312 109.671875 143.8125 120.949219 C 139.71875 131.199219 136.421875 145.984375 143.972656 158.203125 C 144.371094 158.84375 144.171875 159.683594 143.527344 160.078125 C 143.304688 160.214844 143.054688 160.28125 142.8125 160.28125 Z M 142.8125 160.28125 " fill-opacity="1" fill-rule="nonzero"/><path fill="#ffd477" d="M 200.378906 72.621094 C 219.097656 57.492188 237.75 69.980469 245.304688 80.925781 C 249.609375 87.167969 259.246094 103.980469 252.53125 129.027344 C 245.417969 155.582031 221.40625 166.621094 217.554688 168.335938 L 220.457031 176.355469 L 191.386719 166.8125 L 207.640625 140.945312 L 210.847656 149.800781 C 210.847656 149.800781 231.828125 138.894531 235.378906 120.230469 C 239.105469 100.628906 226.328125 85.757812 217.417969 79.574219 C 209.25 73.90625 200.378906 72.621094 200.378906 72.621094 Z M 200.378906 72.621094 " fill-opacity="1" fill-rule="nonzero"/><path fill="#421b37" d="M 220.457031 177.71875 C 220.316406 177.71875 220.171875 177.695312 220.03125 177.652344 L 190.957031 168.109375 C 190.558594 167.976562 190.242188 167.671875 190.101562 167.277344 C 189.957031 166.882812 190.003906 166.445312 190.226562 166.089844 L 206.480469 140.222656 C 206.757812 139.777344 207.265625 139.535156 207.785156 139.589844 C 208.304688 139.644531 208.746094 139.992188 208.925781 140.480469 L 211.582031 147.816406 C 213.480469 146.683594 217.121094 144.34375 220.921875 140.953125 C 225.933594 136.484375 232.277344 129.21875 234.035156 119.972656 C 237.410156 102.234375 226.773438 87.726562 216.640625 80.695312 C 208.847656 75.289062 200.265625 73.984375 200.179688 73.972656 C 199.644531 73.890625 199.203125 73.503906 199.0625 72.980469 C 198.917969 72.460938 199.097656 71.902344 199.519531 71.5625 C 203.257812 68.539062 207.207031 66.425781 211.253906 65.28125 C 214.929688 64.242188 218.71875 63.988281 222.507812 64.535156 C 233.269531 66.085938 241.921875 73.621094 246.429688 80.15625 C 250.066406 85.421875 252.738281 91.289062 254.375 97.582031 C 256.988281 107.640625 256.8125 118.339844 253.851562 129.378906 C 252.179688 135.632812 249.445312 141.527344 245.734375 146.902344 C 242.699219 151.296875 238.988281 155.378906 234.707031 159.03125 C 230.058594 163 224.617188 166.527344 219.265625 169.050781 L 221.742188 175.894531 C 221.921875 176.382812 221.800781 176.933594 221.4375 177.304688 C 221.175781 177.574219 220.820312 177.71875 220.457031 177.71875 Z M 193.46875 166.0625 L 218.21875 174.1875 L 216.269531 168.800781 C 216.027344 168.128906 216.34375 167.382812 216.996094 167.09375 C 223.371094 164.253906 244.671875 153.089844 251.210938 128.675781 C 257.390625 105.628906 249.457031 89.351562 244.175781 81.699219 C 239.996094 75.640625 232.007812 68.660156 222.117188 67.234375 C 215.714844 66.3125 209.503906 67.886719 203.613281 71.910156 C 207.003906 72.773438 212.722656 74.65625 218.199219 78.457031 C 220.84375 80.289062 227.507812 85.496094 232.332031 94.210938 C 234.472656 98.074219 235.953125 102.113281 236.738281 106.222656 C 237.636719 110.90625 237.628906 115.703125 236.71875 120.484375 C 235.875 124.921875 234.011719 129.296875 231.179688 133.484375 C 228.933594 136.808594 226.078125 140.019531 222.691406 143.03125 C 216.941406 148.148438 211.699219 150.898438 211.480469 151.011719 C 211.128906 151.191406 210.71875 151.214844 210.351562 151.074219 C 209.984375 150.929688 209.695312 150.636719 209.5625 150.265625 L 207.308594 144.039062 Z M 193.46875 166.0625 " fill-opacity="1" fill-rule="nonzero"/><path fill="#421b37" d="M 229.355469 135.074219 C 229.0625 135.074219 228.769531 134.984375 228.523438 134.792969 C 227.921875 134.335938 227.8125 133.480469 228.269531 132.882812 C 228.335938 132.796875 234.773438 124.359375 239.28125 113.078125 C 243.375 102.828125 246.671875 88.042969 239.117188 75.824219 C 238.722656 75.183594 238.921875 74.34375 239.566406 73.949219 C 240.207031 73.554688 241.050781 73.753906 241.445312 74.394531 C 245.0625 80.246094 246.71875 87.085938 246.359375 94.714844 C 246.078125 100.75 244.542969 107.289062 241.796875 114.148438 C 237.144531 125.761719 230.710938 134.1875 230.4375 134.542969 C 230.167969 134.890625 229.765625 135.074219 229.355469 135.074219 Z M 229.355469 135.074219 " fill-opacity="1" fill-rule="nonzero"/><path fill="#96f269" d="M 192.230469 122.191406 C 192.230469 122.191406 172.164062 105.734375 192.230469 83.109375 C 192.230469 83.109375 212.300781 101.621094 192.230469 122.191406 Z M 192.230469 122.191406 " fill-opacity="1" fill-rule="nonzero"/><path fill="#421b37" d="M 192.230469 123.554688 C 191.925781 123.554688 191.617188 123.453125 191.363281 123.246094 C 191.019531 122.960938 182.898438 116.183594 182.023438 105.1875 C 181.410156 97.5 184.5 89.769531 191.207031 82.203125 C 191.453125 81.929688 191.796875 81.765625 192.164062 81.746094 C 192.53125 81.726562 192.890625 81.859375 193.160156 82.109375 C 193.253906 82.191406 195.46875 84.25 197.726562 87.75 C 199.820312 90.996094 202.347656 96.148438 202.507812 102.285156 C 202.703125 109.601562 199.574219 116.621094 193.210938 123.140625 C 192.945312 123.414062 192.589844 123.554688 192.230469 123.554688 Z M 192.289062 85.132812 C 186.761719 91.753906 184.226562 98.421875 184.746094 104.972656 C 185.363281 112.714844 190.121094 118.230469 192.167969 120.269531 C 197.375 114.585938 199.933594 108.574219 199.777344 102.382812 C 199.566406 94.074219 194.480469 87.558594 192.289062 85.132812 Z M 192.289062 85.132812 " fill-opacity="1" fill-rule="nonzero"/><path fill="#96f269" d="M 201.386719 128.433594 C 201.386719 128.433594 200.285156 109.558594 221.96875 110.542969 C 221.96875 110.542969 225.5 130.453125 201.386719 128.433594 Z M 201.386719 128.433594 " fill-opacity="1" fill-rule="nonzero"/><path fill="#421b37" d="M 204.695312 129.941406 C 203.597656 129.941406 202.457031 129.890625 201.269531 129.792969 C 200.59375 129.734375 200.058594 129.191406 200.019531 128.511719 C 200 128.175781 199.605469 120.210938 205.21875 114.539062 C 209.066406 110.652344 214.726562 108.847656 222.03125 109.183594 C 222.667969 109.210938 223.203125 109.679688 223.316406 110.304688 C 223.375 110.652344 224.757812 118.839844 219.476562 124.609375 C 216.234375 128.152344 211.273438 129.941406 204.695312 129.941406 Z M 202.769531 127.160156 C 209.515625 127.519531 214.445312 126.050781 217.445312 122.789062 C 220.796875 119.136719 220.882812 114.074219 220.738281 111.871094 C 214.820312 111.804688 210.265625 113.335938 207.183594 116.4375 C 203.597656 120.042969 202.894531 124.933594 202.769531 127.160156 Z M 202.769531 127.160156 " fill-opacity="1" fill-rule="nonzero"/><path fill="#96f269" d="M 184.597656 136.363281 C 184.597656 136.363281 185.695312 116.453125 164.011719 117.4375 C 164.011719 117.4375 160.480469 138.386719 184.597656 136.363281 Z M 184.597656 136.363281 " fill-opacity="1" fill-rule="nonzero"/><path fill="#421b37" d="M 181.4375 137.863281 C 174.976562 137.863281 170.058594 136.074219 166.785156 132.527344 C 161.183594 126.457031 162.601562 117.585938 162.664062 117.210938 C 162.773438 116.574219 163.308594 116.101562 163.949219 116.074219 C 171.054688 115.75 176.609375 117.550781 180.449219 121.421875 C 186.386719 127.402344 185.980469 136.074219 185.960938 136.4375 C 185.925781 137.117188 185.390625 137.664062 184.710938 137.722656 C 183.578125 137.816406 182.488281 137.863281 181.4375 137.863281 Z M 184.597656 136.363281 Z M 184.597656 136.363281 Z M 165.25 118.765625 C 165.089844 121.121094 165.160156 126.753906 168.808594 130.695312 C 171.824219 133.953125 176.664062 135.429688 183.214844 135.089844 C 183.097656 132.699219 182.382812 127.226562 178.492188 123.324219 C 175.476562 120.292969 171.121094 118.765625 165.539062 118.765625 C 165.441406 118.765625 165.347656 118.765625 165.25 118.765625 Z M 165.25 118.765625 " fill-opacity="1" fill-rule="nonzero"/><path fill="#421b37" d="M 190.339844 145.46875 C 189.847656 145.46875 189.375 145.203125 189.128906 144.742188 C 187.625 141.894531 185.761719 139.226562 183.589844 136.804688 C 183.085938 136.242188 183.132812 135.382812 183.695312 134.878906 C 184.257812 134.375 185.121094 134.425781 185.625 134.984375 C 187.949219 137.574219 189.941406 140.425781 191.546875 143.46875 C 191.898438 144.132812 191.644531 144.960938 190.976562 145.308594 C 190.773438 145.417969 190.554688 145.46875 190.339844 145.46875 Z M 190.339844 145.46875 " fill-opacity="1" fill-rule="nonzero"/><path fill="#421b37" d="M 191.828125 153.039062 C 191.070312 153.039062 190.460938 152.425781 190.460938 151.675781 L 190.460938 121.832031 C 190.460938 121.082031 191.070312 120.46875 191.828125 120.46875 C 192.582031 120.46875 193.195312 121.082031 193.195312 121.832031 L 193.195312 151.675781 C 193.195312 152.425781 192.582031 153.039062 191.828125 153.039062 Z M 191.828125 153.039062 " fill-opacity="1" fill-rule="nonzero"/><path fill="#421b37" d="M 191.886719 144.511719 C 191.753906 144.511719 191.621094 144.492188 191.488281 144.449219 C 190.765625 144.230469 190.359375 143.46875 190.578125 142.75 C 192.480469 136.511719 195.796875 131.078125 200.429688 126.597656 C 200.972656 126.074219 201.839844 126.089844 202.363281 126.628906 C 202.886719 127.171875 202.875 128.035156 202.332031 128.558594 C 198.035156 132.710938 194.960938 137.75 193.191406 143.542969 C 193.011719 144.132812 192.472656 144.511719 191.886719 144.511719 Z M 191.886719 144.511719 " fill-opacity="1" fill-rule="nonzero"/><path fill="#96f269" d="M 177.535156 259.261719 L 177.535156 190.445312 C 177.535156 186.335938 174.191406 183.003906 170.074219 183.003906 L 97.898438 183.003906 C 93.777344 183.003906 90.4375 186.335938 90.4375 190.445312 L 90.4375 259.261719 Z M 177.535156 259.261719 " fill-opacity="1" fill-rule="nonzero"/><path fill="#421b37" d="M 177.535156 260.625 L 90.4375 260.625 C 89.683594 260.625 89.070312 260.015625 89.070312 259.261719 L 89.070312 190.445312 C 89.070312 185.589844 93.03125 181.640625 97.898438 181.640625 L 170.070312 181.640625 C 174.941406 181.640625 178.898438 185.589844 178.898438 190.445312 L 178.898438 259.261719 C 178.898438 260.015625 178.289062 260.625 177.535156 260.625 Z M 91.804688 257.898438 L 176.167969 257.898438 L 176.167969 190.445312 C 176.167969 187.09375 173.433594 184.367188 170.070312 184.367188 L 97.898438 184.367188 C 94.539062 184.367188 91.804688 187.09375 91.804688 190.445312 Z M 91.804688 257.898438 " fill-opacity="1" fill-rule="nonzero"/><path fill="#ffffff" d="M 184.140625 229.769531 L 182.929688 242.820312 L 145.789062 242.929688 L 144.566406 229.769531 Z M 184.140625 229.769531 " fill-opacity="1" fill-rule="nonzero"/><path fill="#421b37" d="M 145.789062 244.292969 C 145.085938 244.292969 144.492188 243.757812 144.429688 243.054688 L 143.207031 229.894531 C 143.171875 229.511719 143.300781 229.132812 143.558594 228.851562 C 143.816406 228.566406 144.183594 228.40625 144.566406 228.40625 L 184.140625 228.40625 C 184.527344 228.40625 184.894531 228.566406 185.152344 228.851562 C 185.410156 229.132812 185.539062 229.511719 185.503906 229.894531 L 184.292969 242.945312 C 184.226562 243.644531 183.640625 244.179688 182.933594 244.183594 L 145.792969 244.292969 C 145.792969 244.292969 145.792969 244.292969 145.789062 244.292969 Z M 146.066406 231.132812 L 147.035156 241.5625 L 181.683594 241.460938 L 182.644531 231.132812 Z M 146.066406 231.132812 " fill-opacity="1" fill-rule="nonzero"/><path fill="#ffd477" d="M 183.328125 259.074219 L 185.261719 242.929688 L 143.449219 242.929688 L 145.402344 259.261719 Z M 183.328125 259.074219 " fill-opacity="1" fill-rule="nonzero"/><path fill="#421b37" d="M 145.402344 260.625 C 144.71875 260.625 144.128906 260.117188 144.046875 259.425781 L 142.09375 243.089844 C 142.046875 242.703125 142.167969 242.316406 142.425781 242.023438 C 142.6875 241.734375 143.058594 241.566406 143.449219 241.566406 L 185.261719 241.566406 C 185.652344 241.566406 186.023438 241.734375 186.28125 242.023438 C 186.542969 242.316406 186.664062 242.703125 186.617188 243.089844 L 184.6875 259.234375 C 184.597656 259.984375 183.914062 260.515625 183.167969 260.429688 C 182.417969 260.339844 181.882812 259.660156 181.972656 258.914062 L 183.722656 244.292969 L 144.988281 244.292969 L 146.761719 259.101562 C 146.851562 259.851562 146.316406 260.527344 145.566406 260.617188 C 145.511719 260.625 145.457031 260.625 145.402344 260.625 Z M 145.402344 260.625 " fill-opacity="1" fill-rule="nonzero"/><path fill="#ffd477" d="M 140.835938 229.769531 L 142.144531 218.097656 L 186.566406 218.097656 L 187.875 229.769531 Z M 140.835938 229.769531 " fill-opacity="1" fill-rule="nonzero"/><path fill="#421b37" d="M 187.875 231.132812 L 140.835938 231.132812 C 140.445312 231.132812 140.078125 230.96875 139.816406 230.679688 C 139.558594 230.386719 139.433594 230.003906 139.476562 229.617188 L 140.785156 217.945312 C 140.863281 217.257812 141.445312 216.734375 142.144531 216.734375 L 186.566406 216.734375 C 187.265625 216.734375 187.847656 217.257812 187.925781 217.945312 L 189.234375 229.617188 C 189.277344 230.003906 189.152344 230.386719 188.894531 230.679688 C 188.632812 230.96875 188.261719 231.132812 187.875 231.132812 Z M 142.363281 228.40625 L 186.347656 228.40625 L 185.34375 219.460938 L 143.367188 219.460938 Z M 142.363281 228.40625 " fill-opacity="1" fill-rule="nonzero"/><path fill="#ffffff" d="M 120.707031 208.300781 L 147.179688 208.300781 C 150.550781 208.300781 153.28125 205.578125 153.28125 202.21875 L 153.28125 198.488281 C 153.28125 195.128906 150.550781 192.40625 147.179688 192.40625 L 120.707031 192.40625 C 117.339844 192.40625 114.609375 195.128906 114.609375 198.488281 L 114.609375 202.21875 C 114.609375 205.578125 117.339844 208.300781 120.707031 208.300781 Z M 120.707031 208.300781 " fill-opacity="1" fill-rule="nonzero"/><path fill="#421b37" d="M 147.179688 209.664062 L 120.707031 209.664062 C 116.589844 209.664062 113.242188 206.324219 113.242188 202.21875 L 113.242188 198.488281 C 113.242188 194.382812 116.589844 191.039062 120.707031 191.039062 L 147.179688 191.039062 C 151.296875 191.039062 154.644531 194.382812 154.644531 198.488281 L 154.644531 202.21875 C 154.648438 206.324219 151.296875 209.664062 147.179688 209.664062 Z M 120.707031 193.769531 C 118.097656 193.769531 115.976562 195.886719 115.976562 198.488281 L 115.976562 202.21875 C 115.976562 204.820312 118.097656 206.9375 120.707031 206.9375 L 147.179688 206.9375 C 149.789062 206.9375 151.914062 204.820312 151.914062 202.21875 L 151.914062 198.488281 C 151.914062 195.886719 149.789062 193.769531 147.179688 193.769531 Z M 120.707031 193.769531 " fill-opacity="1" fill-rule="nonzero"/><path fill="#ffffff" d="M 123.234375 229.769531 L 122.023438 242.820312 L 84.882812 242.929688 L 83.660156 229.769531 Z M 123.234375 229.769531 " fill-opacity="1" fill-rule="nonzero"/><path fill="#421b37" d="M 84.882812 244.292969 C 84.175781 244.292969 83.585938 243.757812 83.523438 243.054688 L 82.300781 229.894531 C 82.265625 229.511719 82.390625 229.132812 82.652344 228.851562 C 82.910156 228.566406 83.277344 228.40625 83.660156 228.40625 L 123.234375 228.40625 C 123.621094 228.40625 123.984375 228.566406 124.246094 228.851562 C 124.503906 229.132812 124.632812 229.511719 124.597656 229.894531 L 123.382812 242.945312 C 123.320312 243.644531 122.730469 244.179688 122.027344 244.183594 L 84.886719 244.292969 C 84.886719 244.292969 84.882812 244.292969 84.882812 244.292969 Z M 85.160156 231.132812 L 86.128906 241.5625 L 120.777344 241.460938 L 121.734375 231.132812 Z M 85.160156 231.132812 " fill-opacity="1" fill-rule="nonzero"/><path fill="#ffd477" d="M 122.421875 259.074219 L 124.351562 242.929688 L 82.542969 242.929688 L 84.496094 259.261719 Z M 122.421875 259.074219 " fill-opacity="1" fill-rule="nonzero"/><path fill="#421b37" d="M 84.496094 260.625 C 83.8125 260.625 83.222656 260.117188 83.140625 259.425781 L 81.183594 243.089844 C 81.136719 242.703125 81.261719 242.316406 81.519531 242.023438 C 81.777344 241.734375 82.152344 241.566406 82.542969 241.566406 L 124.351562 241.566406 C 124.742188 241.566406 125.117188 241.734375 125.375 242.023438 C 125.636719 242.316406 125.757812 242.703125 125.710938 243.089844 L 123.777344 259.234375 C 123.6875 259.984375 123.007812 260.515625 122.257812 260.429688 C 121.511719 260.339844 120.976562 259.660156 121.066406 258.914062 L 122.8125 244.292969 L 84.082031 244.292969 L 85.851562 259.101562 C 85.941406 259.851562 85.40625 260.527344 84.65625 260.617188 C 84.601562 260.625 84.546875 260.625 84.496094 260.625 Z M 84.496094 260.625 " fill-opacity="1" fill-rule="nonzero"/><path fill="#ffd477" d="M 79.929688 229.769531 L 81.234375 218.097656 L 125.660156 218.097656 L 126.96875 229.769531 Z M 79.929688 229.769531 " fill-opacity="1" fill-rule="nonzero"/><path fill="#421b37" d="M 126.96875 231.132812 L 79.929688 231.132812 C 79.539062 231.132812 79.167969 230.96875 78.910156 230.679688 C 78.652344 230.386719 78.527344 230.003906 78.570312 229.617188 L 79.878906 217.945312 C 79.953125 217.257812 80.539062 216.734375 81.234375 216.734375 L 125.660156 216.734375 C 126.355469 216.734375 126.941406 217.257812 127.019531 217.945312 L 128.324219 229.617188 C 128.367188 230.003906 128.246094 230.386719 127.984375 230.679688 C 127.726562 230.96875 127.355469 231.132812 126.96875 231.132812 Z M 81.457031 228.40625 L 125.4375 228.40625 L 124.4375 219.460938 L 82.457031 219.460938 Z M 81.457031 228.40625 " fill-opacity="1" fill-rule="nonzero"/><path fill="#ffffff" d="M 102.96875 290.53125 L 182.882812 290.53125 C 186.824219 290.53125 190.015625 287.347656 190.015625 283.417969 L 190.015625 259.808594 L 95.835938 259.808594 L 95.835938 283.417969 C 95.835938 287.347656 99.03125 290.53125 102.96875 290.53125 Z M 102.96875 290.53125 " fill-opacity="1" fill-rule="nonzero"/><path fill="#421b37" d="M 182.882812 291.894531 L 102.96875 291.894531 C 98.285156 291.894531 94.472656 288.089844 94.472656 283.417969 L 94.472656 259.808594 C 94.472656 259.054688 95.082031 258.445312 95.835938 258.445312 L 190.015625 258.445312 C 190.773438 258.445312 191.382812 259.054688 191.382812 259.808594 L 191.382812 283.417969 C 191.382812 288.089844 187.570312 291.894531 182.882812 291.894531 Z M 97.203125 261.171875 L 97.203125 283.417969 C 97.203125 286.589844 99.789062 289.167969 102.96875 289.167969 L 182.882812 289.167969 C 186.0625 289.167969 188.652344 286.585938 188.652344 283.417969 L 188.652344 261.171875 Z M 97.203125 261.171875 " fill-opacity="1" fill-rule="nonzero"/><path fill="#96f269" d="M 100.273438 250.785156 C 115.546875 265.953125 112.242188 286.515625 110.074219 288.691406 C 107.90625 290.863281 87.308594 294.257812 72.03125 279.089844 C 56.757812 263.921875 51.9375 236.59375 54.757812 233.769531 C 57.578125 230.941406 84.996094 235.617188 100.273438 250.785156 Z M 100.273438 250.785156 " fill-opacity="1" fill-rule="nonzero"/><path fill="#421b37" d="M 100.242188 291.984375 C 98.839844 291.984375 97.355469 291.910156 95.824219 291.746094 C 89.195312 291.046875 79.519531 288.449219 71.066406 280.054688 C 61.976562 271.027344 57.289062 258.726562 55.300781 252.195312 C 53.984375 247.867188 53.082031 243.546875 52.757812 240.03125 C 52.238281 234.359375 53.40625 233.191406 53.789062 232.804688 C 54.171875 232.421875 55.339844 231.25 61.027344 231.742188 C 64.550781 232.050781 68.886719 232.929688 73.234375 234.222656 C 79.789062 236.171875 92.144531 240.792969 101.238281 249.820312 C 109.691406 258.210938 112.339844 267.851562 113.074219 274.460938 C 113.886719 281.773438 112.652344 288.039062 111.042969 289.652344 C 109.769531 290.925781 105.574219 291.984375 100.242188 291.984375 Z M 55.730469 234.730469 C 55.53125 235.03125 55.144531 236.515625 55.515625 240.144531 C 55.859375 243.511719 56.75 247.632812 58.023438 251.75 C 59.941406 257.953125 64.433594 269.625 72.996094 278.125 C 80.84375 285.914062 89.828125 288.351562 95.984375 289.023438 C 99.972656 289.457031 103.101562 289.203125 105.023438 288.910156 C 107.546875 288.53125 108.867188 287.945312 109.109375 287.722656 C 109.324219 287.488281 109.90625 286.167969 110.273438 283.648438 C 110.558594 281.730469 110.796875 278.605469 110.34375 274.632812 C 109.640625 268.492188 107.15625 259.542969 99.308594 251.75 C 90.746094 243.25 79.023438 238.824219 72.800781 236.941406 C 68.667969 235.691406 64.53125 234.820312 61.152344 234.492188 C 57.515625 234.140625 56.027344 234.535156 55.730469 234.730469 Z M 55.730469 234.730469 " fill-opacity="1" fill-rule="nonzero"/><path fill="#96f269" d="M 110.074219 288.691406 L 83.59375 262.53125 Z M 110.074219 288.691406 " fill-opacity="1" fill-rule="nonzero"/><path fill="#421b37" d="M 110.074219 290.054688 C 109.726562 290.054688 109.378906 289.921875 109.113281 289.660156 L 82.628906 263.5 C 82.09375 262.96875 82.089844 262.105469 82.621094 261.570312 C 83.152344 261.035156 84.019531 261.03125 84.554688 261.5625 L 111.039062 287.722656 C 111.574219 288.25 111.578125 289.113281 111.046875 289.648438 C 110.78125 289.917969 110.429688 290.054688 110.074219 290.054688 Z M 110.074219 290.054688 " fill-opacity="1" fill-rule="nonzero"/></svg>