<svg xmlns="http://www.w3.org/2000/svg" xmlns:xlink="http://www.w3.org/1999/xlink" width="500" zoomAndPan="magnify" viewBox="0 0 375 374.999991" height="500" preserveAspectRatio="xMidYMid meet" version="1.0"><defs><g/><clipPath id="3a09918d92"><path d="M 145.152344 56.695312 L 279.261719 56.695312 L 279.261719 315.90625 L 145.152344 315.90625 Z M 145.152344 56.695312 " clip-rule="nonzero"/></clipPath></defs><rect x="-37.5" width="450" fill="#ffffff" y="-37.499999" height="449.999989" fill-opacity="1"/><rect x="-37.5" width="450" fill="#ecffec" y="-37.499999" height="449.999989" fill-opacity="1"/><g fill="#000000" fill-opacity="1"><g transform="translate(8.777326, 0.899998)"><g><path d="M 0.03125 0 L 0.03125 -0.109375 L 0.203125 -0.109375 L 0.203125 -0.5625 C 0.171875 -0.550781 0.144531 -0.539062 0.125 -0.53125 C 0.101562 -0.53125 0.078125 -0.523438 0.046875 -0.515625 L 0.046875 -0.640625 C 0.128906 -0.660156 0.191406 -0.6875 0.234375 -0.71875 L 0.34375 -0.71875 L 0.34375 -0.109375 L 0.5 -0.109375 L 0.5 0 Z M 0.03125 0 "/></g></g></g><g clip-path="url(#3a09918d92)"><path fill="#bae158" d="M 279.253906 99.476562 C 276.402344 100.035156 273.328125 100.714844 271.417969 102.910156 C 270.464844 104.007812 269.898438 105.394531 269.539062 106.804688 C 267.90625 113.234375 270.371094 120.101562 269.15625 126.625 C 268.292969 131.21875 265.621094 135.164062 262.425781 138.476562 C 257.554688 143.523438 247.101562 152 240.910156 144.199219 C 237.742188 140.210938 237.183594 134.617188 236.96875 129.710938 C 236.738281 124.398438 237.707031 119.03125 240.019531 114.230469 C 244.832031 104.253906 255.695312 97.222656 266.722656 97.945312 C 270.929688 98.222656 275.046875 99.539062 279.253906 99.476562 Z M 155.0625 119.578125 C 158.109375 123.753906 161.789062 127.460938 165.894531 130.601562 C 171.460938 134.859375 177.796875 138.082031 184.476562 140.167969 C 186.492188 140.792969 188.535156 141.324219 190.601562 141.734375 C 195.132812 142.640625 202.230469 143.808594 205.152344 139 C 205.804688 137.925781 206.027344 136.664062 206.324219 135.453125 C 207.527344 130.554688 207.203125 125.492188 207.195312 120.492188 C 207.195312 116.609375 206.992188 112.71875 206.398438 108.871094 C 205.144531 100.722656 202.003906 92.628906 196.179688 86.800781 C 188.429688 79.054688 176.761719 76.03125 169.53125 67.804688 C 167.945312 65.996094 166.589844 63.929688 165.988281 61.609375 C 165.832031 61.035156 165.734375 60.460938 165.675781 59.878906 C 165.367188 56.941406 161.9375 55.609375 159.886719 57.734375 C 158.125 59.554688 156.398438 61.394531 154.84375 63.386719 C 143.566406 77.792969 143.027344 99.191406 152.136719 115.0625 C 153.027344 116.617188 154.011719 118.125 155.0625 119.578125 Z M 212.914062 248.816406 C 215.085938 254.933594 217.972656 261.152344 218.945312 267.601562 C 219.753906 272.953125 219.796875 278.433594 219.054688 283.796875 C 217.597656 294.316406 212.808594 304.902344 203.476562 310.617188 C 203.109375 310.84375 202.734375 311.0625 202.351562 311.269531 C 190.769531 317.640625 175.730469 316.132812 163.246094 313.71875 C 161.800781 313.441406 148.699219 309.667969 149.230469 308.34375 C 150.242188 305.832031 155.4375 304.003906 157.679688 302.558594 C 165.039062 297.835938 172.316406 293 179.589844 288.164062 C 188.875 281.996094 198.316406 276.148438 205.476562 267.425781 C 209.902344 262.035156 212.65625 255.820312 212.914062 248.816406 " fill-opacity="1" fill-rule="nonzero"/></g><path fill="#4a2a1f" d="M 212.257812 296.101562 C 213.53125 295.597656 214.867188 294.898438 216.191406 294.585938 C 216.414062 295.464844 215.511719 296.9375 215.09375 297.707031 C 214.5625 298.691406 213.941406 299.628906 213.320312 300.5625 C 212.082031 302.417969 210.5625 304.632812 208.976562 306.207031 C 201.546875 313.582031 190.976562 316.238281 180.800781 317.308594 C 170.492188 318.382812 160.007812 317.292969 149.980469 314.753906 C 118.351562 306.75 95.492188 286.117188 98.9375 268.65625 C 98.308594 266.085938 97.996094 263.535156 98.109375 260.972656 C 98.929688 242.167969 120.578125 225.421875 150.398438 223.28125 C 185.671875 220.753906 218.464844 239.050781 217.320312 264.59375 C 217.234375 266.46875 216.960938 268.335938 216.5 270.164062 C 216.160156 271.523438 215.679688 272.839844 215.085938 274.117188 C 213.609375 277.289062 211.5 280.183594 209.324219 282.902344 C 207.097656 285.679688 204.59375 288.269531 201.6875 290.335938 C 198.808594 292.382812 195.675781 294.046875 192.480469 295.519531 C 187.296875 297.898438 181.820312 299.597656 176.242188 300.730469 C 181.210938 301.042969 186.082031 301.070312 190.714844 300.648438 C 198.195312 299.960938 205.25 298.839844 212.257812 296.101562 " fill-opacity="1" fill-rule="nonzero"/><path fill="#9bd52b" d="M 259.355469 219.375 C 257.199219 247.144531 240.019531 269.929688 220.417969 288.445312 C 219.082031 289.707031 217.660156 290.996094 215.898438 291.511719 C 214.140625 292.035156 211.941406 291.546875 211.054688 289.933594 C 210.921875 289.679688 210.824219 289.425781 210.757812 289.164062 C 210.292969 287.265625 211.609375 285.15625 212.875 283.511719 C 224.222656 268.796875 236.558594 255.238281 243.214844 237.742188 C 250.207031 219.339844 251.558594 196.671875 242.109375 178.554688 C 233.632812 162.304688 217.144531 152.441406 202.601562 142.082031 C 201.679688 141.429688 200.769531 140.769531 199.863281 140.113281 C 180.539062 125.957031 165.464844 106.351562 161.050781 82.617188 C 160.902344 81.824219 162.042969 81.476562 162.351562 82.21875 C 170.921875 102.484375 183.804688 119.074219 201.964844 131.984375 C 203.484375 133.066406 205.03125 134.128906 206.585938 135.191406 C 219.804688 144.234375 233.746094 152.730469 243.863281 165.355469 C 243.964844 165.476562 244.042969 165.609375 244.132812 165.730469 C 243.773438 160.164062 243.992188 154.578125 244.664062 149.054688 C 246.125 136.855469 249.988281 124.960938 256.125 114.316406 C 250.191406 124.65625 247.859375 136.945312 247.617188 148.808594 C 247.605469 149.523438 247.570312 150.246094 247.570312 150.953125 C 247.578125 159.988281 249.476562 168.214844 251.902344 176.480469 C 253.167969 180.777344 254.578125 185.082031 255.933594 189.507812 C 258.902344 199.179688 260.132812 209.261719 259.355469 219.375 " fill-opacity="1" fill-rule="nonzero"/></svg>